<svg width="1254" height="1254" viewBox="0 0 1254 1254" fill="none" xmlns="http://www.w3.org/2000/svg">
<path d="M688.829 22.4846C692.042 18.595 708.088 0.777861 712.213 11.2579C711.301 17.2366 708.778 18.3839 703.97 22.0304C712.837 22.2896 723.568 23.1605 732.285 24.7553C736.471 19.2922 743.017 10.8011 750.878 15.2503C753.802 21.0474 749.124 23.5972 744.893 26.6066C772.642 33.714 797.509 48.2092 813.874 72.2093C817.158 77.0232 819.785 85.4182 824.19 88.266C826.087 84.2321 825.159 84.7223 828.35 82.4957C837.199 81.9828 834.151 87.6235 836.173 90.8786C838.886 95.2464 850.548 100.016 850.194 106.819C849.945 111.585 846.152 112.913 841.799 112.267L841.478 112.989C847.381 118.34 864.893 128.149 857.03 135.1C848.198 137.313 836.276 123.088 830.524 117.231C831.912 122.153 833.001 127.256 835.549 131.615C840.805 134.448 852.117 138.58 848.98 145.126C843.466 149.046 840.332 144.876 836.006 141.059C836.592 145.517 837.323 150.271 837.656 154.731C876.182 136.759 889.101 210.67 858.435 223.619C856.309 224.517 852.736 225.023 850.418 225.345C857.013 246.972 863.436 272.934 869.502 295.277C924.442 317.765 972.954 382.794 994.653 436.816C1031.31 528.073 1034.31 634.709 1018.58 730.815C1015.66 748.66 1009.27 786.015 998.126 799.19C1009.17 833.711 997.471 897.852 993.464 934.238C992.008 947.434 990.446 966.346 988.776 979.349C1000.08 974.936 996.536 977.259 1007.56 975.41C1017.99 973.659 1031.8 963.951 1043.65 969.512C1053.24 974.017 1058.98 991.226 1063.11 1000.92C1071.14 998.786 1081.39 994.651 1088.62 997.234C1098.28 993.488 1107.94 984.329 1118.61 990.197C1133.09 998.157 1141.34 1021.72 1142.66 1036.93C1161.35 1054.67 1181.72 1086.39 1182.64 1111.94C1183.67 1139.96 1144.84 1136.57 1131.48 1118.89C1122.91 1107.55 1115.87 1098.64 1109.35 1086.09C1109.66 1093.02 1111.86 1107.96 1107.55 1113.56C1102.77 1119.76 978.46 1149.05 961.422 1151.91C945.321 1154.6 928.292 1156.27 911.964 1156.09C894.178 1155.92 875.331 1153.96 862.344 1140.46C854.258 1132.06 849.622 1120.3 847.086 1109.08C806.135 1116.74 735.462 1135.44 695.034 1113.51C682.499 1106.7 675.739 1085.86 673.567 1071.77C662.542 1000.29 671.168 923.753 680.561 852.309C682.471 837.773 685.831 817.208 689.205 803.672C664.089 773.284 661.309 663.001 658.595 622.02C656.97 597.504 654.029 564.112 653.003 539.573C632.495 583.706 612.967 624.936 586.148 666.009C585.812 659.134 585.944 651.241 585.894 644.285C581.529 631.865 561.264 624.708 550.105 618.505C546.457 616.733 543.225 614.855 539.719 612.846C549.664 598.311 559.757 573.49 567.315 557.472C586.919 515.921 618.931 428.012 648.442 395.419C629.288 394.467 607.68 389.433 590.887 380.332C594.359 377.375 597.809 374.394 601.236 371.386C617.746 357.64 633.005 343.601 651.1 331.877C654.454 329.702 656.169 322.509 654.887 318.658C652.902 316.571 652.488 316.498 651.847 313.667C654.694 303.668 648.298 299.094 641.12 292.768C635.97 288.229 631.671 286.958 624.856 287.958C616.824 296.559 617.074 292.298 608.102 297.686C605.285 299.379 604.644 306.291 599.338 308.582C599.007 308.837 598.677 309.092 598.347 309.347L595.467 311.669C584.68 320.83 574.068 330.196 563.637 339.763L553.884 347.837C545.708 327.98 544.036 323.494 541.629 302.341C539.935 304.795 538.769 306.195 535.816 306.613C533.351 305.228 531.344 301.866 531.3 299.344C530.759 268.608 538.141 236.148 543.469 205.886C544.964 197.402 547.51 187.846 547.936 179.381C548.171 174.692 538.727 174.41 537.732 168.855C536.847 163.905 540.429 156.034 542.89 151.758C544.722 148.572 546.364 147.839 549.461 147.229C554.576 149.265 551.278 149.396 555.31 152.451C558.176 146.096 560.414 136.431 562.282 129.565C574.753 83.7072 593.711 49.2417 641.073 32.4063C637.804 26.091 635.361 23.0616 636.945 16.18C642.744 11.9631 648.322 25.4966 650.185 29.2874C654.859 27.3199 656.104 26.8577 661.107 25.7558C663.843 19.1159 666.918 8.9805 676.019 10.2227C680.045 14.7388 676.411 19.355 673.758 23.4851L688.829 22.4846Z" fill="#FCFCFC"/>
<path d="M691.444 33.6443C695.308 33.5909 698.492 33.2677 702.189 34.3229C699.917 38.4209 697.051 42.623 696.652 47.1484C698.154 52.0318 700.002 53.9272 705.27 52.7371C709.305 49.2094 707.332 48.6885 708.908 44.2606C710.013 41.1591 712.684 37.0771 714.485 34.2093C718.79 34.8812 721.695 35.3888 726.109 35.4622C724.321 40.4966 721.45 51.6872 728.321 54.0207C734.329 50.3435 733.803 43.2922 736.551 36.8421C764.849 42.7352 790.448 55.2375 805.718 80.2849C809.497 86.484 812.362 90.4417 812.883 98.0459C807.635 101.923 797.284 101.97 796.603 110.115C796.201 114.908 801.195 114.985 803.665 116.845C801.706 125.542 795.714 138.39 799.446 146.101C805.199 149.527 810.428 143.759 814.818 140.142C811.229 151.421 806.278 169.803 809.604 181.968C809.695 182.3 812.378 186.271 812.817 186.933C813.98 193.877 807.954 199.423 811.653 205.528C814.048 207.21 813.922 207.043 816.875 207.313C828.733 201.875 820.531 174.723 821.028 164.252C821.31 158.304 824.147 150.565 825.294 144.511C826.193 150.093 826.995 155.691 827.697 161.301C825.034 163.663 824.251 163.989 823.175 167.209C823.352 170.488 825.791 176.665 829.925 174.903C838.002 171.461 837.746 166.022 846.619 161.806C867.619 170.22 867.597 193.424 857.985 210.863L857.135 211.368C845.46 218.168 838.481 208.503 834.759 217.145C835.076 220.416 835.617 219.735 836.679 222.211C847.218 246.783 848.987 275.473 858.882 300.475C860.655 304.955 864.993 306.852 869.166 308.911C857.412 337.588 874.723 412.198 878.449 444.723C884.225 492.567 886.142 543.359 870.991 589.708C867.182 601.358 858.249 620.236 846.936 624.567C819.622 635.021 792.107 606.518 788.565 580.942C787.973 576.669 787.052 575.681 783.927 572.98C784.288 570.16 785.186 563.961 784.897 561.344C784.443 557.244 782.039 551.547 782.37 547.406C786.171 546.085 789.139 545.815 791.927 542.821C792.866 539.55 792.898 541.119 791.938 537.94C789.397 535.811 790.809 536.473 787.53 535.892C784.637 536.715 783.923 537.609 781.651 539.531L780.452 539.297C778.837 535.762 779.784 536.559 776.893 534.67C772.741 534.547 772.616 535.545 770.213 538.854C766.221 536.759 766.797 531.379 762.143 528.77C759.401 528.432 759.151 528.113 756.55 528.748C752.379 534.832 763.59 542.619 767.969 545.122C768.458 545.4 768.95 545.673 769.445 545.941C770.276 552.079 772.443 563.865 770.685 569.337L769.803 569.914C767.426 571.505 766.22 571.922 765.33 574.595C765.387 579.119 766.59 581.3 768.997 585.168C761.698 601.26 757.467 608.056 742.604 619.092C729.524 607.936 718.672 594.403 710.624 579.211C687.272 534.105 679.716 446.776 678.021 396.396C698.763 395.416 756.776 383.306 771.179 368.51C772.114 363.092 771.973 355.873 766.572 353.173C763.197 353.198 764.757 352.794 761.761 354.584C760.429 357.121 760.594 358.066 760.471 360.894C746.996 374.205 689.166 385.248 669.621 384.895C649.454 384.533 618.917 381.832 601.236 371.386C617.745 357.64 633.005 343.601 651.1 331.876C654.454 329.702 656.169 322.509 654.886 318.658C652.901 316.57 652.487 316.498 651.846 313.667C654.694 303.667 648.297 299.094 641.119 292.768C635.97 288.229 631.67 286.958 624.855 287.958C616.824 296.559 617.074 292.298 608.102 297.686C605.284 299.378 604.643 306.291 599.338 308.582C599.007 308.837 598.677 309.092 598.347 309.347L595.467 311.668C584.68 320.83 574.067 330.196 563.637 339.762C554.056 318.645 552.126 306.46 551.475 283.868C556.981 280.867 562.723 272.449 557.793 267.22C551.069 264.818 553.258 267.869 548.838 269.689C546.978 267.141 546.35 266.388 546.584 263.156C547.38 252.169 549.477 240.857 551.207 229.973C551.42 230.063 551.634 230.152 551.848 230.24L552.802 230.613C555.369 231.638 555.099 231.674 557.83 230.999C561.799 228.273 559.013 225.453 562.94 223.479C569.189 216.043 561.647 213.118 556.305 208.579C556.269 208.548 557.774 198.751 557.912 198.118C569.343 145.381 582.564 60.5377 643.776 43.94C644.742 43.6822 645.717 43.4605 646.698 43.2775L647.191 44.4009C648.532 47.4129 648.781 48.6885 651.132 50.7642C658.256 53.0069 659.07 48.0073 658.133 42.5188C660.874 36.0139 671.382 36.0419 677.797 35.2632C675.903 39.9676 671.512 50.5599 678.956 52.9975C685.216 50.4503 687.579 39.5482 691.444 33.6443Z" fill="#FCFCFC"/>
<path d="M625.764 284.22C629.635 283.974 633.341 283.48 637.077 284.612C647.418 289.945 650.505 292.198 656.913 301.929C677.161 300.319 695.737 298.541 715.167 305.384C716.12 300.789 716.61 295.604 719.511 292.178C728.797 288.336 727.25 303.274 725.757 306.739C721.786 315.947 736.435 328.887 722.448 330.212C718.051 328.119 716.79 322.557 714.835 318.08C702.885 312.283 694.307 311.63 681.201 312.079C672.201 312.386 660.349 310.086 654.886 318.658C652.901 316.571 652.487 316.499 651.846 313.667C654.694 303.668 648.297 299.094 641.119 292.768C635.97 288.23 631.67 286.958 624.855 287.958C624.928 285.916 624.838 286.018 625.764 284.22Z" fill="#FD5505"/>
<path d="M634.701 259.854C613.577 252.831 629.314 228.464 633.113 214.044C634.769 207.761 643.876 189.133 651.928 192.134C656.443 198.792 653.481 203.195 647.692 207.038C645.208 213.292 634.415 242.425 636.301 247.219C646.568 256.504 667.266 240.487 675.308 244.543C677.153 247.473 676.751 245.938 676.735 249.263C672.264 257.389 651.169 259.726 642.559 260.523C641.261 260.61 636.28 260.013 634.701 259.854Z" fill="#FD5505"/>
<path d="M634.702 259.854C636.281 260.012 641.262 260.61 642.56 260.523C644.795 266.379 639.702 278.702 637.078 284.612C633.342 283.48 629.636 283.974 625.765 284.22C627.827 281.146 633.896 263.734 634.702 259.854Z" fill="#FE8E5C"/>
<path d="M595.468 311.669C592.822 310.34 592.449 310.428 590.826 307.909C590.685 304.809 590.291 306.184 592.034 303.632C594.912 302.77 593.567 302.677 596.219 303.727C598.054 305.643 597.942 306.712 598.348 309.347L595.468 311.669Z" fill="#FD5505"/>
<path d="M666.258 147.517C673.197 146.889 733.413 143.248 723.762 159.258C721.033 159.952 722.445 159.857 719.366 159.008C717.287 159.558 662.548 157.695 660.293 156.445C658.184 152.03 662.765 149.156 666.258 147.517Z" fill="#FD5505"/>
<path d="M631.515 156.813C622.491 158.41 609.592 156.228 600.032 157.149C590.158 158.1 590.548 163.124 586.631 164.85C586.64 162.553 586.998 160.569 585.71 158.819C583.071 157.726 582.175 157.531 580.023 155.569C579.472 152.638 579.451 154.134 580.663 150.97C587.627 144.714 624.134 144.063 632.165 147.772C636.092 149.3 640.917 150.975 638.885 156.274C635.776 158.104 635.145 157.844 631.515 156.813Z" fill="#FD5505"/>
<path d="M632.167 147.772C636.094 149.3 640.919 150.975 638.887 156.274C635.777 158.104 635.147 157.843 631.517 156.812C632.593 152.701 632.524 152.036 632.167 147.772Z" fill="#FD6E23"/>
<path d="M633.979 169.264C632.93 165.851 632.04 163.727 634.792 160.823C639.589 159.927 641.299 162.93 642.052 167.261L642.662 170.658C642.644 189.04 631.949 198.703 615.28 204.424C615.78 201.118 616.561 197.648 617.23 194.352C629.629 189.07 631.846 181.603 633.979 169.264Z" fill="#FE8E5C"/>
<path d="M633.979 169.264C632.93 165.851 632.039 163.727 634.792 160.823C639.589 159.927 641.299 162.93 642.052 167.261L642.662 170.658C637.881 171.43 638.434 171.313 633.979 169.264Z" fill="#FE9D75"/>
<path d="M712.223 186.994C714.501 189.082 717.087 191.576 719.463 193.492C710.544 206.464 693.006 209.339 678.77 204.206C679.377 200.218 679.489 198.066 681.152 194.347C686.294 195.907 689.2 196.697 694.726 196.961L703.801 193.683C707.519 191.29 708.979 189.922 712.223 186.994Z" fill="#FD5505"/>
<path d="M694.726 196.961L703.8 193.683C703.935 197.458 704.268 198.502 702.747 201.794C698.93 203.71 697.137 199.917 694.726 196.961Z" fill="#FD6E23"/>
<path d="M666.049 341.389C668.278 340.6 669.018 341.009 671.378 341.452C673.726 343.346 672.892 342.176 673.821 345.192C672.806 352.012 667.594 352.905 662.056 354.568C656.986 353.128 655.984 352.863 650.669 352.588C646.656 352.716 642.27 349.665 643.105 345.187C647.074 341.713 656.979 343.214 664.63 341.681L666.049 341.389Z" fill="#FD5505"/>
<path d="M666.602 196.519C660.53 189.967 649.37 166.094 659.619 161.313C666.355 165.325 661.558 177.532 671.699 188.279L672.427 189.036C669.341 191.966 668.846 192.856 666.602 196.519Z" fill="#FE8E5C"/>
<path d="M680 165.04C691.8 164.585 695.649 174.852 687.289 183.115C675.774 183.546 671.458 173.098 680 165.04Z" fill="black"/>
<path d="M597.418 193.166C600.518 194.452 602.527 195.349 605.753 196.194C610.917 195.796 612.21 195.595 617.231 194.353C616.561 197.648 615.78 201.118 615.28 204.424C612.608 205.087 608.03 206.3 605.28 205.825C597.625 204.252 595.532 203.326 589.279 198.45C593.3 196.645 594.002 196.015 597.418 193.166Z" fill="#FD5505"/>
<path d="M605.752 196.193C610.916 195.795 612.209 195.595 617.23 194.353C616.561 197.648 615.779 201.118 615.28 204.424C612.607 205.086 608.03 206.299 605.279 205.825C606.687 203.669 605.922 199.032 605.752 196.193Z" fill="#FD6E23"/>
<path d="M602.935 165.503C607.34 165.199 611.195 168.439 611.651 172.831C612.108 177.223 609.001 181.186 604.628 181.794C601.661 182.205 598.706 180.965 596.922 178.561C595.137 176.157 594.806 172.97 596.059 170.25C597.312 167.529 599.949 165.71 602.935 165.503Z" fill="black"/>
<path d="M829.949 582.227C841.255 582.304 843.522 590.643 835.963 598.369C824.66 600.005 822.11 588.765 829.949 582.227Z" fill="#FD5505"/>
<path d="M772.025 506.873C775.805 506.85 775.859 506.806 778.549 508.667C781.115 513.793 780.221 521.237 776.449 525.533L773.255 524.71C767.976 520.233 768.003 512.244 772.025 506.873Z" fill="#FD5505"/>
<path d="M712.223 186.994C715.594 182.202 716.578 178.82 718.458 173.309C721.34 172.738 719.899 172.648 722.87 174.045C726.918 179.577 722.679 188.372 719.464 193.493C717.087 191.576 714.501 189.082 712.223 186.994Z" fill="#FE9D75"/>
<path d="M589.279 198.449C586.305 195.191 576.217 182.959 586.083 180.927C590.075 183.686 592.441 189.378 597.418 193.165C594.002 196.014 593.3 196.645 589.279 198.449Z" fill="#FE8E5C"/>
<path d="M672.427 189.037C675.519 191.123 677.743 192.757 681.152 194.347C679.489 198.066 679.376 200.218 678.769 204.206C673.419 201.67 671.075 200.353 666.602 196.519C668.846 192.857 669.341 191.966 672.427 189.037Z" fill="#FD6E23"/>
<path d="M726.947 580.543C730.026 579.159 733.643 580.543 735.011 583.628C736.377 586.715 734.975 590.324 731.881 591.675C728.812 593.017 725.235 591.625 723.878 588.562C722.519 585.5 723.892 581.916 726.947 580.543Z" fill="#FD5505"/>
<path d="M768.209 273.886C771.144 273.753 773.696 275.875 774.1 278.784C774.504 281.694 772.628 284.432 769.768 285.102C767.668 285.597 765.468 284.858 764.091 283.198C762.713 281.537 762.393 279.24 763.267 277.267C764.139 275.293 766.053 273.984 768.209 273.886Z" fill="#FD5505"/>
<path d="M729.824 485.667C732.714 484.568 735.948 486.021 737.046 488.911C738.143 491.803 736.688 495.036 733.796 496.131C730.907 497.226 727.677 495.772 726.581 492.884C725.484 489.995 726.936 486.765 729.824 485.667Z" fill="#FD5505"/>
<path d="M845.545 185.334C848.656 186.849 848.712 186.656 850.455 189.499C851.173 195.725 847.667 196.63 842.483 197.806C841.866 197.923 840.768 197.652 840.057 197.538L839.146 196.119C839.277 192.027 842.875 188.222 845.545 185.334Z" fill="#FD5505"/>
<path d="M792.657 510.984C795.459 509.864 798.641 511.211 799.785 514.004C800.93 516.796 799.61 519.988 796.829 521.158C794.012 522.343 790.769 521.004 789.61 518.176C788.45 515.348 789.819 512.118 792.657 510.984Z" fill="#FD5505"/>
<path d="M818.58 483.216C821.449 483.243 823.785 485.528 823.872 488.396C823.96 491.262 821.768 493.687 818.906 493.888C816.952 494.025 815.079 493.082 814.026 491.429C812.974 489.777 812.91 487.681 813.859 485.968C814.81 484.255 816.622 483.199 818.58 483.216Z" fill="#FD5505"/>
<path d="M747.908 510.268C749.605 509.574 751.545 509.853 752.977 510.996C754.41 512.14 755.112 513.97 754.811 515.778C754.509 517.587 753.252 519.091 751.527 519.708C748.939 520.633 746.086 519.323 745.103 516.757C744.119 514.191 745.365 511.31 747.908 510.268Z" fill="#FD5505"/>
<path d="M737.686 332.614C738.906 331.79 740.48 331.694 741.793 332.362C743.106 333.03 743.953 334.357 744.006 335.831C744.06 337.303 743.309 338.688 742.047 339.448C740.163 340.583 737.719 340.01 736.537 338.156C735.354 336.304 735.864 333.844 737.686 332.614Z" fill="#FD5505"/>
<path d="M571.006 308.868C572.171 308.168 573.624 308.166 574.789 308.865C575.953 309.562 576.64 310.844 576.572 312.2C576.505 313.557 575.696 314.765 574.467 315.344C572.696 316.178 570.581 315.478 569.658 313.751C568.735 312.024 569.328 309.876 571.006 308.868Z" fill="#FD5505"/>
<path d="M742.29 286.655C743.29 286.029 744.555 286.007 745.578 286.597C746.599 287.188 747.212 288.294 747.17 289.474C747.128 290.653 746.438 291.714 745.376 292.229C743.851 292.972 742.012 292.39 741.19 290.906C740.368 289.422 740.851 287.555 742.29 286.655Z" fill="#FD5505"/>
<path d="M774.561 317.975C776.077 317.466 777.733 318.178 778.406 319.628C779.079 321.079 778.554 322.803 777.187 323.632C776.157 324.256 774.861 324.236 773.852 323.58C772.841 322.924 772.296 321.749 772.447 320.555C772.599 319.36 773.42 318.358 774.561 317.975Z" fill="#FD5505"/>
<path d="M688.829 22.4846C692.042 18.595 708.088 0.777861 712.213 11.2579C711.301 17.2366 708.778 18.3839 703.97 22.0304C712.837 22.2896 723.568 23.1605 732.285 24.7553C736.471 19.2922 743.017 10.8011 750.878 15.2503C753.802 21.0474 749.124 23.5972 744.893 26.6066C772.642 33.714 797.509 48.2092 813.874 72.2093C817.158 77.0232 819.785 85.4182 824.19 88.266C826.087 84.2321 825.159 84.7223 828.35 82.4957C837.199 81.9828 834.151 87.6235 836.173 90.8786C838.886 95.2464 850.548 100.016 850.194 106.819C849.945 111.585 846.152 112.913 841.799 112.267L841.478 112.989C847.381 118.34 864.893 128.149 857.03 135.1C848.198 137.313 836.276 123.088 830.524 117.231C831.912 122.153 833.001 127.256 835.549 131.615C840.805 134.448 852.117 138.58 848.98 145.126C843.466 149.046 840.332 144.876 836.006 141.059C836.592 145.517 837.323 150.271 837.656 154.731C876.182 136.759 889.101 210.67 858.435 223.619C856.309 224.517 852.736 225.023 850.418 225.345C857.013 246.972 863.436 272.934 869.502 295.277C924.442 317.765 972.954 382.794 994.653 436.816C1031.31 528.073 1034.31 634.709 1018.58 730.815C1015.66 748.66 1009.27 786.015 998.126 799.19C1009.17 833.711 997.471 897.852 993.464 934.238C992.008 947.434 990.446 966.346 988.776 979.349C1000.08 974.936 996.536 977.259 1007.56 975.41C1017.99 973.659 1031.8 963.951 1043.65 969.512C1053.24 974.017 1058.98 991.226 1063.11 1000.92C1071.14 998.786 1081.39 994.651 1088.62 997.234C1098.28 993.488 1107.94 984.329 1118.61 990.197C1133.09 998.157 1141.34 1021.72 1142.66 1036.93C1161.35 1054.67 1181.72 1086.39 1182.64 1111.94C1183.67 1139.96 1144.84 1136.57 1131.48 1118.89C1122.91 1107.55 1115.87 1098.64 1109.35 1086.09C1109.66 1093.02 1111.86 1107.96 1107.55 1113.56C1102.77 1119.76 978.46 1149.05 961.422 1151.91C945.321 1154.6 928.292 1156.27 911.964 1156.09C894.178 1155.92 875.331 1153.96 862.344 1140.46C854.258 1132.06 849.622 1120.3 847.086 1109.08C806.135 1116.74 735.462 1135.44 695.034 1113.51C682.499 1106.7 675.739 1085.86 673.567 1071.77C662.542 1000.29 671.168 923.753 680.561 852.309C682.471 837.773 685.831 817.208 689.205 803.672C664.089 773.284 661.309 663.001 658.595 622.02C656.97 597.504 654.029 564.112 653.003 539.573C632.495 583.706 612.967 624.936 586.148 666.009C585.812 659.134 585.944 651.241 585.894 644.285C599.863 620.819 612.753 596.728 624.522 572.085C630.989 558.628 642.744 530.793 650.323 519.645C649.707 511.015 644.428 491.632 650.084 485.105C660.188 482.035 660.857 498.141 661.603 504.981C666.095 546.179 667.977 588.353 671.281 629.613C675.317 679.984 674.786 747.044 696.184 793.09C742.192 812.666 788.01 818.024 837.705 818.045C843.793 818.048 859.15 818.566 864.65 816.906C876.74 813.861 887.741 815.962 900.489 812.797C914.848 809.232 917.665 794.076 921.712 780.701C935.267 735.905 945.572 688.337 948.377 641.492C951.827 583.88 943.124 526.385 932.507 469.983C932.045 467.524 933.08 464.235 934.352 462.136C936.862 460.662 935.514 460.987 938.585 461.369C940.79 462.928 942.906 465.224 943.532 467.958C964.7 560.239 968.546 656.442 943.325 748.424C936.073 774.874 929.175 813.927 906.283 831.484C904.347 832.969 901.324 827.278 899.311 826.08C891.891 826.008 861.218 831.763 859.698 839.753C864.385 841.988 875.005 836.202 879.616 838.594C892.197 845.123 861.306 872.573 856.182 878.75C868.022 872.378 872.215 866.273 882.568 858.476C884.82 856.78 886.972 857.064 889.556 857.573C896.269 863.512 878.482 887.117 874.167 894.416C878.424 891.025 885.091 885.878 888.821 882.185C891.688 879.345 892.117 875.285 896.311 871.543C914.12 866.454 897.13 895.984 895.169 901.97L897.142 901.931L895.794 902.958C903.707 898.854 916.106 871.724 919.519 862.765C922.102 855.982 916.902 837.049 923.913 831.648C926.634 831.053 926.53 831.266 929.192 832.296C933.715 836.736 931.54 840.988 932.219 846.448C934.587 865.501 924.929 878.513 916.994 894.769C913.141 902.664 900.912 923.192 889.903 915.999C884.854 912.7 885.988 906.235 884.812 901.135C860.613 912.621 859.34 902.902 869.073 882.976C862.026 889.025 848.15 893.101 846.869 879.39C845.913 869.149 860.551 855.702 867.848 848.313C866.695 848.692 865.533 849.047 864.366 849.376C849.422 853.507 842.28 843.761 850.672 830.043C806.58 830.386 738.512 826.169 698.53 807.043C692.289 846.013 687.337 884.147 684.094 925.619C681.566 957.935 671.705 1081.99 701.173 1102.9C729.238 1122.81 809.162 1104.67 844.206 1096.92C839.091 1072.29 835.652 1035.08 834.522 1009.88C826.118 1011.55 797.69 1014.35 792.144 1016.91C790.463 1020.01 789.84 1021.95 785.832 1021.78C782.008 1021.63 778.917 1016.82 779.052 1013.21C780.109 984.886 786.288 955.364 788.246 927.203C781.682 925.778 773.289 924.985 771.284 917.268C772.614 913.017 777.222 912.148 781.192 913.02C788.827 914.696 796.067 916.782 803.794 918.3C814.458 920.397 826.582 919.855 836.841 922.957C840.79 926.23 842.22 930.405 842.98 935.393C845.042 948.924 843.809 963.95 844.413 977.748C846.156 1017.66 847.812 1059.22 856.543 1098.34C859.587 1111.98 864.027 1128.85 876.821 1136.61C917.215 1161.13 1052.18 1117.12 1098.21 1105.23C1097.1 1082.93 1097.32 1061.43 1091.41 1039.5C1088.79 1029.81 1084.6 1018.98 1081.47 1009.15C1075.8 1011.06 1070.12 1012.28 1064.34 1013.74C1036.82 1020.67 1009.45 1027.91 982.189 1035.78C980.1 1036.38 977.026 1037.04 975.335 1035.15C974.056 1033.73 972.286 1032.02 972.439 1029.85C974.099 1017.07 975.029 1004.23 976.227 991.407C978.156 970.099 980.294 948.812 982.641 927.547C987.814 884.377 994.546 847.292 989.003 803.725C976.29 810.142 962.433 815.948 948.551 819.294C943.626 820.48 939.758 820.769 936.246 816.851C934.878 807.521 952.304 806.979 958.63 804.313C983.58 793.795 992.062 795.776 998.66 767.76C1033.55 619.708 1022.89 401.316 877.998 312.96C877.945 321.861 876.675 330.598 877.079 339.648C879.423 392.033 894.777 444.134 894.954 496.695C895.139 552 891.232 635.163 823.939 649.234C793.851 655.525 766.662 650.099 741.02 633.583L736.439 630.511C733.852 628.342 731.308 626.12 728.812 623.847C674.709 573.653 669.541 466.048 666.389 396.763C663.889 395.935 663.897 396.229 661.171 396.458C656.754 404.429 650.809 410.844 646.353 418.367C608.54 482.214 586.156 553.618 550.105 618.505C546.457 616.733 543.225 614.855 539.719 612.846C549.664 598.311 559.757 573.49 567.315 557.472C586.919 515.921 618.931 428.012 648.442 395.419C629.288 394.467 607.68 389.433 590.887 380.332C594.359 377.375 597.809 374.394 601.236 371.386C618.917 381.832 649.454 384.533 669.621 384.895C689.167 385.248 746.996 374.205 760.471 360.894C760.594 358.066 760.43 357.122 761.761 354.584C764.757 352.794 763.197 353.199 766.573 353.173C771.973 355.873 772.115 363.092 771.18 368.51C756.777 383.306 698.764 395.417 678.021 396.396C679.716 446.776 687.273 534.105 710.625 579.211C718.673 594.404 729.524 607.936 742.605 619.092C757.467 608.056 761.699 601.26 768.997 585.169C766.59 581.3 765.388 579.119 765.33 574.595C766.22 571.922 767.426 571.506 769.804 569.915L770.685 569.338C772.443 563.865 770.277 552.079 769.446 545.941C768.95 545.673 768.459 545.4 767.97 545.122C763.59 542.619 752.379 534.832 756.551 528.748C759.151 528.113 759.401 528.433 762.143 528.771C766.797 531.379 766.221 536.759 770.214 538.854C772.617 535.545 772.741 534.548 776.894 534.67C779.784 536.559 778.837 535.762 780.452 539.297L781.652 539.531C783.924 537.609 784.637 536.715 787.53 535.893C790.809 536.474 789.397 535.811 791.938 537.94C792.898 541.119 792.866 539.55 791.927 542.821C789.14 545.816 786.172 546.085 782.37 547.406C782.039 551.547 784.443 557.244 784.897 561.345C785.186 563.961 784.288 570.16 783.928 572.98C787.052 575.681 787.974 576.669 788.565 580.942C792.108 606.519 819.622 635.022 846.936 624.567C858.25 620.236 867.183 601.359 870.991 589.709C886.142 543.359 884.225 492.567 878.45 444.723C874.723 412.199 857.412 337.588 869.166 308.912C864.994 306.852 860.655 304.955 858.883 300.475C848.988 275.473 847.218 246.783 836.679 222.212C835.617 219.735 835.076 220.416 834.76 217.145C838.481 208.503 845.46 218.168 857.136 211.368L857.985 210.863C867.597 193.424 867.62 170.22 846.62 161.807C837.746 166.022 838.003 171.461 829.926 174.903C825.792 176.665 823.353 170.489 823.175 167.209C824.252 163.989 825.034 163.663 827.698 161.302C826.995 155.692 826.194 150.094 825.295 144.512C824.147 150.565 821.31 158.304 821.029 164.252C820.532 174.723 828.733 201.875 816.876 207.313C813.923 207.043 814.048 207.21 811.653 205.529C807.955 199.423 813.98 193.877 812.818 186.933C812.378 186.271 809.695 182.3 809.604 181.968C806.278 169.803 811.23 151.421 814.819 140.143C810.428 143.76 805.199 149.527 799.446 146.101C795.714 138.39 801.706 125.542 803.666 116.845C801.196 114.986 796.202 114.908 796.604 110.116C797.285 101.97 807.635 101.924 812.883 98.0461C812.362 90.4419 809.497 86.4841 805.719 80.2851C790.449 55.2377 764.85 42.7354 736.551 36.8422C733.804 43.2924 734.33 50.3436 728.322 54.0209C721.451 51.6874 724.321 40.4967 726.11 35.4624C721.695 35.3889 718.79 34.8814 714.485 34.2095C712.685 37.0773 710.013 41.1593 708.908 44.2608C707.332 48.6887 709.305 49.2096 705.27 52.7372C700.002 53.9274 698.155 52.032 696.652 47.1486C697.051 42.6232 699.918 38.421 702.19 34.3231C698.493 33.2678 695.308 33.5911 691.444 33.6445C687.58 39.5484 685.217 50.4505 678.956 52.9977C671.512 50.56 675.903 39.9678 677.797 35.2634C671.383 36.0421 660.875 36.0141 658.134 42.519C659.07 48.0075 658.257 53.007 651.132 50.7644C648.781 48.6887 648.533 47.4131 647.192 44.401L646.699 43.2777C645.717 43.4607 644.742 43.6824 643.776 43.9402C582.564 60.5378 569.343 145.381 557.912 198.118C557.775 198.751 556.269 208.549 556.306 208.579C561.647 213.118 569.19 216.043 562.94 223.479C559.013 225.453 561.799 228.273 557.831 230.999C555.099 231.674 555.369 231.638 552.802 230.613L551.848 230.241C551.635 230.152 551.421 230.063 551.207 229.973C549.477 240.857 547.38 252.169 546.584 263.157C546.35 266.388 546.978 267.141 548.839 269.69C553.259 267.869 551.069 264.818 557.793 267.22C562.724 272.449 556.981 280.867 551.476 283.868C552.126 306.461 554.056 318.645 563.637 339.763L553.884 347.837C545.708 327.98 544.036 323.494 541.629 302.341C539.935 304.795 538.769 306.195 535.816 306.613C533.351 305.228 531.344 301.866 531.3 299.344C530.759 268.608 538.141 236.148 543.469 205.886C544.964 197.402 547.51 187.846 547.936 179.381C548.171 174.692 538.727 174.41 537.732 168.855C536.847 163.905 540.429 156.034 542.89 151.758C544.722 148.572 546.364 147.839 549.461 147.229C554.576 149.265 551.278 149.396 555.31 152.451C558.176 146.096 560.414 136.431 562.282 129.565C574.753 83.7072 593.711 49.2417 641.073 32.4063C637.804 26.091 635.361 23.0616 636.945 16.18C642.744 11.9631 648.322 25.4966 650.185 29.2874C654.859 27.3199 656.104 26.8577 661.107 25.7558C663.843 19.1159 666.918 8.9805 676.019 10.2227C680.045 14.7388 676.411 19.355 673.758 23.4851L688.829 22.4846Z" fill="#FD5505"/>
<path d="M554.148 213.61C556.866 218.519 557.823 221.579 562.94 223.479C559.013 225.454 561.799 228.273 557.831 231C555.099 231.674 555.369 231.638 552.802 230.614L551.848 230.241C551.634 230.153 551.421 230.063 551.207 229.974C551.359 225.108 553.038 218.382 554.148 213.61Z" fill="#FD6E23"/>
<path d="M736.439 630.511C737.774 625.008 738.336 621.457 744.929 621.742C747.454 623.588 746.527 622.419 747.663 625.485C747.257 629.935 744.455 631.186 741.021 633.583L736.439 630.511Z" fill="#E64200"/>
<path d="M841.478 112.989C838.222 110.513 825.165 105.507 826.858 100.527C831.945 97.8022 839.336 108.573 841.799 112.268L841.478 112.989Z" fill="#FCFCFC"/>
<path d="M1110.83 1000.37C1111.59 1000.62 1112.57 1000.9 1113.3 1001.3C1120.96 1005.34 1126.27 1016.86 1127.9 1025.02C1128.68 1028.91 1128.94 1037.01 1130.85 1039.92C1134.46 1045.4 1140.32 1051.08 1144.49 1056.25C1155.38 1069.71 1164.27 1085.28 1169.7 1101.73C1171.23 1106.42 1172.01 1111.58 1169.55 1116.08C1167.29 1120.23 1163.41 1120.57 1159.02 1121.64C1154.7 1120.4 1152.21 1119.08 1148.23 1117.13C1137.41 1110.4 1125.61 1090.86 1119.57 1079.96C1123.99 1076.27 1127.14 1072.41 1122.01 1067.3C1114.83 1064.84 1112.89 1067.8 1108.59 1072.86C1105.98 1045.96 1101.94 1032.58 1094.39 1007.21L1110.83 1000.37Z" fill="#FCFCFC"/>
<path d="M799.719 929.445C809.167 931.15 822.182 930.814 829.886 935.025C832.82 940.504 833.228 987.601 833.61 997.668C829.264 997.986 823.884 999.054 819.507 999.783C813.011 1001.47 798.645 1003.6 791.4 1004.95C791.66 991.015 794.231 977.836 796.034 964.134C797.529 952.778 798.588 940.876 799.719 929.445Z" fill="#FCFCFC"/>
<path d="M777.651 591.875C779.744 594.151 781.677 600.736 783.617 603.961C793.924 621.099 803.775 629.704 821.503 637.446C813.44 638.339 804.156 639.842 796.224 639.356C778.544 638.028 767.587 635.22 752.148 626.553C765.75 614.395 771.909 609.547 777.651 591.875Z" fill="#FCFCFC"/>
<path d="M1033.86 978.988C1043.5 978.344 1048.78 996.865 1051.23 1004.41C1043.45 1005.91 1038.52 1007.4 1030.96 1009.74L1022.32 1012.19C1020.25 1001.38 1016.88 995.333 1012.34 985.436C1021.49 984.076 1025.48 982.822 1033.86 978.988Z" fill="#FCFCFC"/>
<path d="M1000.34 989.074L1001.08 989.181C1005.78 993.887 1009.25 1008.48 1010.72 1014.92C1005.14 1016.31 1000.46 1017.72 994.959 1019.46L985.702 1022.38C986.383 1012.85 986.904 1001.08 988.08 991.795C991.593 991.191 996.748 989.88 1000.34 989.074Z" fill="#FCFCFC"/>
<path d="M815.479 108.768L816.238 109.031C817.925 115.19 819.33 121.424 820.445 127.711L819.141 128.848C815.63 128.843 815.158 129.04 812.156 130.878L811.75 131.181L811.185 130.672C811.811 128.099 814.223 121.051 814.333 119.101C814.472 116.758 813.664 114.46 812.09 112.718C811.904 112.545 811.719 112.372 811.533 112.2L811.619 111.056L815.479 108.768Z" fill="#FCFCFC"/>
<path d="M550.984 157.565C552.864 158.495 552.129 157.809 553.187 159.625C552.876 164.921 551.277 169.884 549.51 174.872C548.11 174.207 548.788 174.677 547.562 173.34C547.408 166.521 547.406 163.656 550.984 157.565Z" fill="#FCFCFC"/>
<path d="M996.216 785.487C997.979 786.198 997.418 785.917 998.901 787.166C999.061 790.272 998.153 790.596 996.349 793.872C995.374 794.04 996.002 794.021 994.506 793.436C994.039 790.972 995.388 788.002 996.216 785.487Z" fill="#E64200"/>
<path d="M540.632 277.883C541.708 280.8 540.371 289.033 539.981 292.526C537.678 288.988 539.395 281.694 540.632 277.883Z" fill="#FD6E23"/>
<path d="M782.077 789.668C784.369 788.391 787.173 788.462 789.398 789.851C791.623 791.241 792.918 793.731 792.776 796.35C792.635 798.97 791.081 801.306 788.72 802.448C785.209 804.146 780.987 802.745 779.189 799.285C777.391 795.826 778.671 791.565 782.077 789.668Z" fill="#FD5505"/>
<path d="M624.856 287.958C631.671 286.958 635.971 288.229 641.12 292.768C648.298 299.094 654.695 303.668 651.847 313.667C652.488 316.498 652.902 316.571 654.887 318.658C656.17 322.509 654.455 329.702 651.101 331.877C633.006 343.601 617.746 357.64 601.237 371.386C597.81 374.394 594.359 377.375 590.888 380.332C607.68 389.433 629.288 394.467 648.443 395.419C618.931 428.012 586.919 515.921 567.315 557.472C559.758 573.49 549.665 598.311 539.719 612.846C543.225 614.855 546.458 616.733 550.106 618.505C561.264 624.708 581.53 631.865 585.895 644.285C585.944 651.241 585.812 659.134 586.149 666.009C585.948 670.413 586.15 675.253 586.117 679.701C585.848 716.459 585.299 753.578 581.126 790.133C580.011 799.882 578.329 809.558 576.088 819.111C573.248 830.841 566.5 853.074 567.418 863.796C569.228 880.995 576.13 896.885 579.48 914.071C591.68 976.672 590.216 1040 591.329 1103.36C591.604 1121.94 591.775 1140.52 591.843 1159.1C591.902 1170.61 592.039 1182.11 591.517 1193.61C591.072 1203.46 587.215 1206.14 577.882 1207.28C550.755 1210.56 523.476 1212.57 496.28 1215.24C445.327 1220.57 394.341 1225.59 343.329 1230.32C308.497 1233.5 273.687 1236.34 238.84 1239.38C217.738 1241.22 196.153 1244.64 175.011 1245.73C172.627 1245.85 170.945 1245.59 168.836 1244.3C157.253 1237.28 145.828 1228.09 134.942 1219.91C117.509 1206.84 100.049 1193.72 82.8107 1180.44C78.6486 1177.24 71.8658 1171.74 72.002 1166.19C72.3253 1153.04 74.6107 1138.03 75.7086 1124.94C79.7278 1077.03 89.9273 1029.23 91.808 981.305C92.6495 959.882 90.3614 934.688 89.1125 913.223C87.6219 887.609 86.9527 860.54 84.9424 835.24C82.3712 802.888 76.7144 764.639 75.2411 732.859C74.6908 720.981 71.1886 635.56 77.763 632.024C92.1566 624.285 170.248 619.073 190.865 615.571C207.205 612.795 228.989 609.42 243.581 607.373C280.837 602.275 318.173 597.798 355.577 593.943C377.01 591.617 400.228 588.688 421.602 587.108C426.211 561.556 428.27 531.97 432.408 506.019C435.826 488.779 434.745 462.381 443.295 446.998C451.595 432.066 476.122 415.443 489.061 404.228C510.754 385.424 532.163 366.418 553.884 347.837L563.638 339.763C574.068 330.196 584.681 320.83 595.468 311.668L598.348 309.347C598.678 309.092 599.008 308.837 599.339 308.582C604.644 306.291 605.286 299.379 608.103 297.686C617.075 292.298 616.825 296.559 624.856 287.958Z" fill="black"/>
<path d="M590.887 380.333C607.679 389.433 629.287 394.468 648.441 395.42C618.93 428.013 586.918 515.922 567.314 557.473C559.757 573.491 549.664 598.311 539.718 612.847C527.957 606.733 516.266 600.49 504.644 594.117C494.031 588.4 484.309 581.639 472.004 581.565C475.028 559.053 483.204 477.07 492.471 462.084C496.521 455.535 505.9 453.394 511.719 448.619C538.64 426.523 564.723 403.317 590.887 380.333Z" fill="#FCFCFC"/>
<path d="M571.787 650.618L574.081 650.554C577.577 657.194 573.495 755.799 572.616 768.422C571.913 778.977 570.745 789.495 569.112 799.946C565.649 822.843 557.175 841.397 556.917 863.767C556.749 878.351 564.046 892.852 567.327 907.502C571.258 925.732 574.077 944.182 575.772 962.754C581.869 1022.96 580.107 1084.25 581.329 1144.74C581.664 1161.29 581.27 1178.24 581.181 1194.82C571.668 1197.17 548.469 1198.82 537.806 1199.81L471.176 1206.28C380.096 1215.92 288.91 1224.51 197.631 1232.03C190.769 1232.72 183.893 1233.28 177.009 1233.71C177.399 1199.85 182.202 1166.97 185.235 1133.25C189.476 1086.65 192.129 1039.92 193.188 993.141C194.561 933.232 189.837 878.313 187.501 818.581C186.415 781.835 186.236 745.069 186.965 708.316C213.598 704.134 240.995 697.848 267.458 692.49C290.229 688.013 313.09 684.002 336.026 680.458C413.799 668.41 493.335 661.134 571.787 650.618Z" fill="#FE9402"/>
<path d="M226.566 927.363C219.913 914.419 202.84 796.076 203.676 778.912C203.958 773.119 206.788 769.663 211.112 765.997C220.55 757.993 233.891 751.355 244.729 745.305C310.542 708.564 387.932 688.003 463.563 692.537C482.419 693.668 549.072 703.163 559.49 715.861C570.34 729.084 546.055 839.36 543.712 859.283L543.787 862.934C542.851 884.988 541.153 886.746 520.938 879.482L519.046 886.585C524.615 889.21 533.893 892.537 536.455 897.68C535.925 904.536 528.358 907.276 522.831 910.489C524.645 916.029 528.563 925.829 527.266 931.114C523.317 933.457 482.367 925.269 473.102 924.557C473.604 919.038 474.113 914.438 474.962 908.968C418.9 905.895 369.326 913.678 316.863 934.765C317.427 936.452 321.16 946.5 319.683 947.551C309.863 954.54 296.69 958.16 285.617 963.366C278.106 966.898 268.6 971.852 260.473 972.714C256.514 970.43 261.737 954.955 262.874 950.733C255.406 949.296 248.733 947.529 241.425 945.8C232.566 943.706 217.99 944.943 222.746 930.595C224.378 927.607 223.208 928.714 226.566 927.363Z" fill="#FCF1D3"/>
<path d="M262.773 919.535C260.397 915.044 258.4 912.356 258.705 907.431C259.996 904.256 262.924 902.668 266.071 901.019C339.832 862.398 432.485 839.21 514.764 860.769C518.356 861.711 522.089 863.216 523.852 866.48C523.983 870.824 522.241 875.227 520.94 879.481L519.048 886.584C524.618 889.209 533.895 892.536 536.457 897.679C535.927 904.535 528.36 907.275 522.833 910.488C524.647 916.028 528.565 925.828 527.268 931.113C523.319 933.456 482.369 925.268 473.104 924.556C473.607 919.037 474.116 914.437 474.964 908.967C418.902 905.893 369.329 913.677 316.866 934.764C317.429 936.451 321.163 946.499 319.685 947.55C309.865 954.539 296.692 958.159 285.619 963.365C278.108 966.897 268.602 971.851 260.476 972.713C256.517 970.429 261.739 954.954 262.876 950.732C255.408 949.295 248.735 947.528 241.427 945.799C232.569 943.705 217.992 944.942 222.748 930.593C224.381 927.605 223.21 928.713 226.568 927.362C229.981 930.548 230.732 930.835 235.036 932.743C244.315 928.411 253.561 924.007 262.773 919.535Z" fill="black"/>
<path d="M262.773 919.536L266.613 926.419C260.515 930.141 246.672 938.19 241.64 942.221C231.619 939.327 228.966 939.112 222.748 930.594C224.38 927.606 223.21 928.713 226.568 927.363C229.981 930.549 230.732 930.836 235.035 932.743C244.315 928.411 253.56 924.008 262.773 919.536Z" fill="#FE9402"/>
<path d="M449.213 858.421C472.198 858.266 497.668 862.07 519.873 867.699C515.854 881.307 511.573 894.837 507.031 908.281C450.476 893.803 376.148 907.057 322.279 926.734C306.956 932.449 295.448 937.093 280.84 944.372C275.199 933.997 268.814 919.567 263.574 908.656C324.69 875.204 380.164 860.845 449.213 858.421Z" fill="#89C51F"/>
<path d="M300.295 900.486C313.747 899.619 315.718 916.659 306.645 925.313C292.749 925.853 290.907 909.045 300.295 900.486Z" fill="black"/>
<path d="M301.483 904.891C308.843 907.201 308.071 915.149 305.635 920.869C298.157 918.292 298.693 910.884 301.483 904.891Z" fill="#89C51F"/>
<path d="M364.537 877.911L366.757 878.805C369.46 883.18 371.508 897.832 367.992 902.158L366.009 902.174C362.246 900.099 360.343 896.436 357.837 892.774C358.278 898.792 359.503 902.853 356.008 907.234C352.462 903.911 350.854 889.591 353.054 884.759C358.214 881.646 361.662 889.245 364.179 893.085C363.687 888.143 362.51 882.168 364.537 877.911Z" fill="black"/>
<path d="M318.956 893.14C321.956 893.042 330.155 894.172 328.181 897.728C322.652 907.685 333.354 908.758 331.566 914.089L329.4 914.917C326.84 914.375 325.105 912.071 323.132 910.114L321.693 909.097L320.774 909.538C321.111 912.971 321.354 914.57 321.068 917.964L319.773 918.769L317.904 917.953C314.762 912.793 313.763 903.999 314.38 897.875C314.595 895.749 317.132 894.346 318.956 893.14Z" fill="black"/>
<path d="M339.444 885.991C345.009 888.296 353.144 904.347 349.203 908.492L347.538 908.264C346.197 905.946 345.708 904.345 343.094 903.346L340.213 905.707C339.353 908.802 339.014 911.288 336.623 912.849L335.363 912.378C333.123 907.366 336.205 890.596 339.444 885.991Z" fill="black"/>
<path d="M380.161 874.877C383.399 874.981 387 875.823 387.373 879.434L385.496 881.286C382.622 880.826 382.325 880.598 379.419 881.198C375.801 884.598 376.544 894.799 382.178 895.243L383.78 893.868L383.812 892.066C381.557 890.331 382.097 891.17 380.856 888.853L381.274 887.944C383.921 885.81 384.677 885.784 388.041 885.161C393.672 891.185 384.831 907.796 375.439 896.669C373.313 894.101 372.298 890.789 372.616 887.47C373.161 881.824 376.119 878.402 380.161 874.877Z" fill="black"/>
<path d="M398.282 872.083C400.532 871.878 401.586 871.916 403.809 871.976C405.193 873.851 404.67 872.816 404.872 875.355C402.383 877.861 401.777 875.656 397.803 877.995C397.628 881.242 397.103 879.986 398.752 882.121C400.807 882.167 401.758 881.967 403.544 882.923L403.813 885.03C401.676 888.304 400.602 885.436 397.536 889.046L397.861 890.771C399.765 892.355 401.277 891.78 404.443 891.89C405.349 893.887 405.164 893.067 404.94 895.341C402.183 897.834 395.674 899.199 393.56 895.138C390.5 889.263 391.982 881.515 393.399 875.356C393.954 872.941 396.319 872.734 398.282 872.083Z" fill="black"/>
<path d="M441.269 868.103L443.541 869.047C445.408 873.031 442.483 881.89 444.669 887.86L446.076 888.21C449.045 883.351 449.149 870.445 452.804 868.774C454.298 870.424 453.843 870.662 454.169 873.375C453.888 880.778 454.288 887.811 447.584 892.328C435.236 894.201 438.637 874.712 441.269 868.103Z" fill="black"/>
<path d="M485.276 870.853C488.988 871.182 494.137 870.719 496.057 873.922C495.31 876.236 495.969 875.278 493.846 876.763C491.427 876.317 491.242 876.147 488.845 876.435C487.428 878.959 487.636 877.683 487.872 880.319C489.169 881.069 489.779 881.387 491.18 882.018L492.389 882.549L492.85 884.191L491.937 885.607C486.643 886.609 487.297 885.875 485.644 890.598C488.916 890.979 491.845 890.627 492.792 894.115C489.37 897.431 485.499 896.001 481.198 895.311C481.794 887.432 483.422 878.541 485.276 870.853Z" fill="black"/>
<path d="M472.737 869.298C476.175 869.391 480.15 870.943 480.472 874.74L478.818 876.44C474.662 875.887 473.505 875.396 470.427 878.455C469.239 882.274 469.655 885.001 471.233 888.696L472.792 888.994C475.101 887.113 475.658 886.826 478.45 885.765C478.48 890.742 478.455 891.725 474.186 894.101C460.403 893.933 465.611 876.718 472.737 869.298Z" fill="black"/>
<path d="M431.583 868.039C434.304 868.719 433.278 868.014 434.957 869.898C436.166 878.146 437.376 896.937 424.557 894.954C422.946 892.962 422.746 892.273 421.65 889.986C421.767 886.782 421.283 888.192 423.125 885.592L424.393 885.458C426.454 887.511 425.583 887.277 428.003 887.935C431.408 884.328 431.145 873.566 431.583 868.039Z" fill="black"/>
<path d="M460.78 868.249C462.362 869.285 463.056 869.229 463.234 870.631C463.99 876.586 462.971 890.291 459.758 894.939C458.227 893.718 457.481 893.653 457.243 892.149C456.363 886.568 458.181 872.711 460.78 868.249Z" fill="black"/>
<path d="M517.26 891.369C522.45 893.593 526.847 896.072 531.793 898.774C527.715 901.809 521.943 905.41 517.604 908.293L523.11 927.328L509.262 924.47C501.089 922.988 494.465 922.047 486.26 921.078C494.211 918.4 502.147 915.679 510.069 912.917C512.997 906.094 515.122 898.507 517.26 891.369Z" fill="url(#paint0_linear_326_2)"/>
<path d="M277.44 950.759C282.37 949.921 300.034 949.797 306.209 949.631C294.365 953.244 275.709 961.92 264.167 967.448C265.249 961.36 266.133 955.729 267.88 949.785C271.638 951.67 273.127 951.654 277.44 950.759Z" fill="#89C51F"/>
<path d="M249.141 942.946C255.905 938.13 261.238 934.879 268.323 930.667C270.467 934.337 273.15 940.556 275.043 944.577C276.445 947.24 276.797 947.714 277.44 950.758C273.127 951.653 271.638 951.669 267.881 949.785C267.167 947.392 267.122 947.561 265.342 945.751C260.488 945.295 254.057 943.886 249.141 942.946Z" fill="#89C51F"/>
<path d="M265.342 945.751C269.334 943.537 270.675 943.345 275.043 944.576C276.446 947.24 276.797 947.714 277.441 950.758C273.128 951.653 271.638 951.669 267.881 949.784C267.168 947.392 267.122 947.56 265.342 945.751Z" fill="#042801"/>
<path d="M310.151 936.361L311.066 936.518C313.147 938.152 314.315 941.953 315.401 944.553L297.551 945.456L293.946 945.261L293.974 944.419C297.558 941.638 305.662 938.366 310.151 936.361Z" fill="#017801"/>
<path d="M479.354 909.4C483.462 909.7 492.893 909.991 496.032 911.941C495 913.957 493.634 913.783 490.751 914.835C486.651 916.213 482.265 917.345 478.084 918.509C478.6 915.567 478.96 912.376 479.354 909.4Z" fill="#017801"/>
<path d="M375.143 727.369C382.386 729.095 382.903 736.054 383.5 742.64C384.201 750.386 385.306 757.474 385.569 765.509C386.509 794.338 386.417 848.758 348.329 853.327C321.104 854.849 316.551 805.025 315.97 785.154C315.522 773.712 314.498 760.292 316.568 749.124C318.091 740.905 331.189 736.452 338.123 738.973C347.568 746.66 340.319 807.731 352.303 812.85C365.68 803.24 352.198 747.481 358.2 734.476C360.097 730.368 370.635 728.392 375.143 727.369Z" fill="black"/>
<path d="M374.406 734.719C374.971 734.979 375.345 735.582 375.822 736.135C380.334 764.674 383.328 809.459 367.011 835.019C361.585 843.52 345.483 849.6 338.173 841.814C323.455 826.138 323.16 794.155 322.188 773.926L322.234 748.96C326.185 747.483 331.042 746.052 335.128 744.745C336.909 764.014 335.904 800.292 345.276 817.237C346.699 819.252 349.118 820.577 351.501 820.526C358.551 820.54 361.764 811.955 362.921 806.135C367.342 783.89 364.336 760.295 362.769 737.787L374.406 734.719Z" fill="#FCF203"/>
<path d="M300.058 742.737C303.069 742.555 305.691 742.392 307.379 745.586C310.737 751.932 313.143 762.112 311.612 769.244C310.635 773.799 301.679 777 297.777 778.779C303.346 804.71 315.294 836.232 300.788 861.365C293.035 874.798 273.455 885.478 258.856 875.726C248.965 869.119 246.169 856.643 243.831 845.663C246.751 839.224 259.634 829.04 266.377 830.635C270.44 834.437 269.72 842.014 274.853 843.882C275.764 843.303 277.345 842.275 277.626 841.278C280.557 830.885 271.756 800.842 269.23 790.794C264.483 792.749 255.498 796.97 250.752 797.342C243.261 794.728 241.406 773.153 243.969 770.605C253.857 760.783 288.169 747.273 300.058 742.737Z" fill="black"/>
<path d="M301.517 749.33C303.841 752.475 305.074 763.272 305.804 767.803C302.086 769.226 291.188 773.008 291.397 776.391C292.967 801.252 308.035 828.73 297.52 853.39C290.298 870.328 267.451 881.21 256.229 861.514C253.18 856.16 251.976 851.063 250.295 845.143L260.308 839.068C261.875 838.283 260.991 838.577 263.001 838.32C267.505 845.159 270.456 859.307 282.054 846.719C289.41 838.737 278.386 786.174 272.291 783.266C267.227 784.049 257.223 788.411 252.068 790.418C251.02 784.926 250.13 779.18 249.195 773.649C261.365 766.034 287.704 754.773 301.517 749.33Z" fill="#FCF203"/>
<path d="M505.453 717.6C514.196 717.113 541.534 717.247 548.804 721.844C552.664 726.971 550.849 731.574 550.563 737.548C549.734 754.919 534.998 750.151 522.939 748.711C522.456 752.687 522.217 757.929 521.926 762.02C526.232 762.484 538.545 763.158 541.113 765.84C545.403 770.322 544.002 792.579 534.933 792.225C530.232 792.042 524.807 791.605 520.209 791.214L518.95 804.623C523.182 804.766 527.413 804.979 531.638 805.265C531.917 805.284 532.196 805.303 532.475 805.321L533.867 805.443C539.264 805.876 542.78 806.41 543.992 812.771C545.112 818.659 541.992 837.039 533.434 836.387C524.76 835.729 501.532 837.489 495.015 832.01C494.163 829.077 493.921 825.604 494.069 822.507C495.645 789.752 497.899 756.948 500.024 724.235C500.22 721.21 503.151 719.137 505.453 717.6Z" fill="black"/>
<path d="M509.372 724.294C519.018 723.902 535.148 725.678 544.616 727.419C544.559 733.469 544.271 737.249 543.597 743.278C536.356 743.176 528.128 741.048 521.285 742.277C515.306 745.901 514.675 761.199 517.334 767.06C520.934 770.375 532.188 769.933 537.905 770.374C537.483 776.208 537.079 779.411 535.989 785.155C512.536 782.662 513.542 786.489 513.46 808.647C517.748 813.583 531.613 812.347 538.259 812.493C537.9 818.525 537.057 822.821 535.954 828.79C523.818 828.948 511.683 828.456 499.6 827.317C501.643 806.374 502.394 784.856 503.914 763.889C504.526 755.455 504.727 732.427 506.561 724.926L509.372 724.294Z" fill="#FCF203"/>
<path d="M461.456 716.704C470.494 716.174 477.668 718.922 483.453 726.185C489.742 734.078 496.802 750.372 486.692 758.158C474.43 767.603 471.406 753.836 464.14 752.663C455.11 757.428 450.327 798.287 461.537 802.87C467.971 801.447 467.887 794.315 471.711 790.32C475.576 786.279 488.248 791.154 490.271 795.697C491.661 798.821 489.903 804.562 489.135 807.724C479.271 844.273 443.207 847.598 432.132 810.087C423.717 781.583 427.905 726.733 461.456 716.704Z" fill="black"/>
<path d="M461.372 723.885C478.907 721.978 483.289 736.84 485.635 750.797C482.83 752.229 479.609 753.663 476.73 755.024C466.901 733.79 453.477 750.561 450.351 765.7C447.779 778.164 444.832 806.21 462.298 809.936C467.18 810.978 471.156 800.482 475.648 796.658C479.029 796.198 478.998 796.841 482.683 798.241C482.953 798.392 484.058 799.46 484.33 799.713C484.427 808.846 476.623 823.179 468.182 827.484C456.425 833.478 445.66 825.103 441.059 814.223C430.883 790.168 433.03 757.869 446.702 735.568C450.292 729.745 455.336 726.513 461.372 723.885Z" fill="#FCF203"/>
<path d="M408.718 721.723C411.627 721.308 415.023 720.991 417.694 722.458C419.169 723.267 420.436 724.66 420.935 726.287C423.495 734.654 422.879 830.553 420.276 834.475C417.595 838.517 411.639 839.031 407.27 839.846C405.157 840.119 402.921 840.51 400.789 840.421C398.814 840.34 396.613 839.396 395.557 837.624C393.516 834.197 391.685 732.804 394.258 727.839C396.801 722.928 403.947 722.447 408.718 721.723Z" fill="black"/>
<path d="M406.048 729.107L414.827 728.315C415.314 748.869 415.486 769.431 415.343 789.99C415.376 802.169 415.86 817.78 415.089 829.731C413.39 831.769 412.189 831.46 409.024 832.321C405.72 832.63 405.413 832.649 402.131 832.292C399.719 827.969 399.644 739.962 400.085 731.133C402.149 729.375 403.077 729.657 406.048 729.107Z" fill="#FCF203"/>
<path d="M417.392 954.788C418.76 949.43 420.861 929.605 425.687 927.381C450.9 915.757 435.25 961.09 432.595 972.622C452.326 977.439 466.224 983.851 480.39 999.148C499.019 1019.27 507.97 1047.94 506.811 1075.11C505.398 1108.18 490.884 1139.32 466.472 1161.68C468.883 1165.7 471.411 1169.68 473.419 1173.9C452.215 1193.11 410.029 1200.55 380.499 1199.97C369.667 1199.76 319.317 1197.01 314.589 1177.92C313.982 1175.48 320.317 1168.06 322.224 1165.12C321.696 1164.66 321.175 1164.19 320.661 1163.71C287.536 1132.72 283.88 1084.07 302.506 1044.99C310.847 1027.48 318.449 1017.7 331.532 1003.89C324.51 1002.89 305.106 1000.09 300.336 995.542C300.288 993.735 300.895 991.752 302.033 990.312C333.373 950.664 369.406 925.527 417.392 954.788Z" fill="black"/>
<path d="M466.474 1161.68C468.885 1165.7 471.414 1169.68 473.422 1173.9C452.218 1193.11 410.032 1200.55 380.502 1199.97C369.67 1199.76 319.32 1197.01 314.592 1177.92C313.985 1175.48 320.32 1168.06 322.226 1165.12C340.392 1178.47 353.146 1186.47 376.426 1189.13C411.884 1193.15 438.997 1183.13 466.474 1161.68Z" fill="#FB7501"/>
<path d="M405.267 979.167C407.65 979.213 409.613 979.372 411.968 979.576C412.581 982.781 408.726 997.993 407.743 1001.86C404.253 1003.1 401.082 1003.3 401.249 1007.26C407.864 1015.75 426.447 1016.12 431.428 1007.22C430.838 1004.25 429.391 1003.99 426.427 1001.9C426.903 996.808 429.911 986.185 431.272 980.818C488.93 995.048 511.277 1052.47 493.052 1106.85C482.884 1137.19 464.187 1157.5 435.493 1171.56C402.82 1186.56 358.699 1183.93 330.42 1160.65C280.43 1119.51 295.488 1042.27 341.816 1004.79C367.435 1004.91 386.595 996.413 405.267 979.167Z" fill="#FB7501"/>
<path d="M445.839 1084.97C448.497 1085.14 449.224 1084.87 451.202 1086.56C457.378 1101.03 408.873 1140.2 377.136 1100.58C374.732 1096.73 371.271 1087.41 377.51 1085.76C386.115 1088.33 384.212 1096.73 393.136 1101.7C415.036 1113.89 433.541 1103.84 445.839 1084.97Z" fill="black"/>
<path d="M397.488 1045.22C414.192 1045.36 408.781 1068.46 400.247 1076.53C384.208 1077.43 387.976 1053.19 397.488 1045.22Z" fill="black"/>
<path d="M435.133 1043.36C448.852 1046.5 444.937 1067.44 435.817 1074.63C420.584 1072.92 425.204 1049.89 435.133 1043.36Z" fill="black"/>
<path d="M374.488 949.105C389.839 948.476 400.104 952.045 413.59 958.95C412.329 958.992 411.068 959.048 409.807 959.12C389.326 960.241 373.562 964.328 354.795 972.377C350.791 974.095 344.037 975.945 341.174 979.13L341.752 980.682C344.152 981.181 349.058 978.687 351.572 977.649C371.441 969.446 390.249 965.263 411.665 963.341C409.548 965.686 407.374 968.327 405.304 970.743C395.714 982.391 372.727 994.511 357.618 996.599C342.146 998.737 322.822 996.683 308.073 991.593C330.467 968.994 339.93 953.446 374.488 949.105Z" fill="#029602"/>
<path d="M365.94 979.769C366.001 983.521 363.401 985.478 360.756 988.266L360.505 986.957C361.603 984.196 363.912 982.018 365.94 979.769Z" fill="#042801"/>
<path d="M376.33 954.526C380.886 954.948 383.55 955.21 386.062 959.298C382.066 957.884 379.955 956.586 376.33 954.526Z" fill="#017801"/>
<path d="M352.56 961.311C357.174 961.363 359.557 961.924 363.508 964.185C359.346 964.133 356.153 963.377 352.56 961.311Z" fill="#017801"/>
<path d="M385.689 974.073L386.216 974.861C385.908 977.675 385.287 977.478 383.03 980.133L382.26 979.359C382.52 976.869 383.675 976.411 385.689 974.073Z" fill="#042801"/>
<path d="M418.78 982.071C418.577 978.188 426.023 937.979 427.448 935.873C429.706 934.808 430.907 935.228 433.395 935.542C434.943 940.449 425.017 978.86 423.065 987.274C422.143 992.807 421.354 1003.31 416.323 1006.46L415.566 1005.84C413.021 999.035 416.805 989.025 418.78 982.071Z" fill="#89C51F"/>
<path d="M533.235 1105.95C552.19 1104.59 566.35 1115.31 570.522 1133.91C573.601 1147.8 570.916 1162.33 563.082 1174.21C555.48 1185.65 547.086 1190.65 533.968 1193.36C481.459 1195.06 480.948 1119.05 533.235 1105.95Z" fill="black"/>
<path d="M534.872 1110.92C540.788 1110.48 546.695 1111.88 551.791 1114.92C570.026 1125.78 570.81 1153.76 559.738 1170.16C551.879 1181.81 544.837 1185.72 531.647 1188.66C488.324 1189.38 487.588 1120.14 534.872 1110.92Z" fill="#89C51F"/>
<path d="M536.354 1127.54C547.462 1128.41 545.348 1144.7 538.246 1150.92C527.707 1147.59 530.437 1134.11 536.354 1127.54Z" fill="black"/>
<path d="M537.359 1131.83C541.232 1135.61 539.498 1141.12 538.035 1145.64C537.506 1145.23 536.586 1144.16 536.09 1143.62C534.867 1138.81 535.416 1136.41 537.359 1131.83Z" fill="#89C51F"/>
<path d="M523.33 1128.21C534.032 1132.89 531.128 1145.74 524.114 1152.7C514.07 1147.58 516.546 1135.2 523.33 1128.21Z" fill="black"/>
<path d="M523.325 1133.13L525.22 1134.89C526.496 1139.8 526.171 1142.48 524.44 1147.23L522.49 1145.43C520.769 1140.44 521.678 1138.21 523.325 1133.13Z" fill="#89C51F"/>
<path d="M537.914 1158.69C539.85 1156.6 540.401 1155.56 543.177 1155C545.665 1156.51 544.681 1155.48 545.923 1158.45L545.211 1159.38L541.522 1159.77C537.695 1164.9 542.142 1166.71 545.623 1169.33C544.578 1171.28 544.407 1171.12 542.429 1172.26C539.808 1172.12 539.983 1172.07 537.683 1170.73L534.873 1173.07L532.139 1172.39L530.33 1167.39C529.709 1164.43 529.829 1160.56 529.764 1157.43L532.235 1157.39L533.894 1156.45C534.719 1157.24 534.968 1157.36 535.602 1158.31L537.914 1158.69Z" fill="black"/>
<path d="M537.915 1158.69C539.85 1156.6 540.402 1155.56 543.177 1155C545.666 1156.51 544.681 1155.48 545.924 1158.45L545.212 1159.38L541.523 1159.77C537.696 1164.9 542.142 1166.71 545.623 1169.33C544.579 1171.28 544.408 1171.12 542.429 1172.26C539.809 1172.12 539.984 1172.07 537.684 1170.73C537.225 1165.54 536.989 1164.02 537.915 1158.69Z" fill="black"/>
<path d="M529.764 1157.43L532.235 1157.39L532.139 1172.39L530.33 1167.39C529.709 1164.43 529.829 1160.56 529.764 1157.43Z" fill="#79A803"/>
<path d="M535.603 1158.31L537.916 1158.68C536.99 1164.01 537.226 1165.54 537.684 1170.73L534.874 1173.07C535.479 1169.52 535.496 1162.24 535.603 1158.31Z" fill="#89C51F"/>
<path d="M520.718 1158.06C522.103 1157.71 521.321 1157.79 523.071 1157.99C525.232 1162.02 522.379 1165.9 524.316 1169.21L525.697 1169.12C527.826 1166.23 525.351 1162.77 527.506 1158.07L529.765 1157.43C529.83 1160.55 529.71 1164.43 530.331 1167.39C529.123 1170.36 529.007 1171.32 526.439 1173.28C523.778 1173.83 525.1 1173.92 522.391 1172.56C521.721 1171.53 520.788 1170.2 520.217 1169.16L520.718 1158.06Z" fill="black"/>
<path d="M518.272 1158.38L520.718 1158.06L520.217 1169.16L518.736 1169.48C517.523 1173.12 515.887 1175.44 511.754 1174.63C510.261 1172.04 510.86 1173.38 510.82 1169.75L512.001 1168.98L513.768 1169.95C515.303 1167.65 514.186 1163.16 515.762 1158.77L518.272 1158.38Z" fill="black"/>
<path d="M518.272 1158.38L520.718 1158.06L520.217 1169.16L518.736 1169.48C518.198 1166.86 518.315 1161.3 518.272 1158.38Z" fill="#79A803"/>
<path d="M513.132 1130.03C516.744 1132.61 516.086 1149.03 513.757 1152.26L511.544 1152.34C511.533 1150.07 511.599 1146 511.226 1143.9C509.697 1135.24 506.939 1136.76 513.132 1130.03Z" fill="black"/>
<path d="M549.478 1153.9C552.199 1154.17 552.428 1154.05 555.004 1155.19C554.74 1156.72 553.119 1157.36 551.428 1158.63L551.303 1160.18L553.797 1161.17L554.215 1162.57L550.944 1165.9L551.124 1167.18L553.329 1168.24L554.729 1168.36L554.836 1169.66C552.856 1171.24 552.974 1171.11 550.455 1171.52C546.054 1168.98 547.292 1157.35 549.478 1153.9Z" fill="black"/>
<path d="M556.417 1126.69L557.638 1127.63C558.308 1131.74 551.506 1145.14 549.163 1148.8L547.518 1147.55C546.631 1143.39 554.062 1130.72 556.417 1126.69Z" fill="black"/>
<path d="M547.629 1128.41C548.901 1128.09 550.247 1128.48 551.143 1129.44C552.039 1130.4 552.344 1131.77 551.936 1133.01C551.529 1134.26 550.474 1135.19 549.185 1135.43C547.275 1135.79 545.422 1134.57 545.001 1132.68C544.58 1130.78 545.744 1128.89 547.629 1128.41Z" fill="black"/>
<path d="M555.313 1140.5C556.931 1139.87 558.756 1140.64 559.435 1142.23C560.115 1143.83 559.4 1145.68 557.824 1146.41C556.761 1146.89 555.518 1146.77 554.576 1146.07C553.635 1145.38 553.146 1144.23 553.299 1143.07C553.453 1141.91 554.225 1140.92 555.313 1140.5Z" fill="black"/>
<path d="M273.037 1162.92C286.162 1158.16 288.387 1177.72 272.894 1180.07L270.748 1178.77C268.759 1180.56 266.129 1181.46 263.583 1180.6C260.584 1176.56 262.115 1168.66 262.544 1163.31C266.09 1162.85 268.467 1162.27 271.966 1163.08L273.037 1162.92Z" fill="black"/>
<path d="M273.037 1162.92C286.162 1158.16 288.388 1177.72 272.895 1180.07L273.037 1162.92Z" fill="black"/>
<path d="M276.774 1165.02C278.715 1166.14 278.573 1166.06 279.684 1168.02C280.141 1171.28 279.505 1172.07 278.223 1175.27L276.663 1174.77C275.772 1171.67 276.437 1168.29 276.774 1165.02Z" fill="#FE9402"/>
<path d="M271.966 1163.08L273.038 1162.92L272.895 1180.07L270.748 1178.77L269.964 1176.93C267.723 1176.56 266.644 1176.69 265.089 1175.14C267.681 1170.67 266.284 1176.3 269.785 1171.68L269.446 1170.09C267.138 1169.57 267.625 1169.97 265.823 1168.74C267.895 1165.1 269.511 1167.68 271.966 1163.08Z" fill="#FE9402"/>
<path d="M240.744 1044.46C246.491 1044.78 261.26 1044.52 264.994 1048.3C265.479 1051.36 265.515 1050.19 263.508 1053.47C256.821 1053.05 243.293 1054.81 239.001 1049.75C238.858 1046.56 238.825 1047.64 240.744 1044.46Z" fill="#FCFCFC"/>
<path d="M257.513 1006.29C263.138 1007.75 273.412 1015.59 277.125 1020.67C277.63 1023.88 277.656 1022.67 275.325 1026.15C270.55 1025.51 258.543 1015.83 255.77 1011.52C255.598 1008.47 255.663 1009.41 257.513 1006.29Z" fill="#FCFCFC"/>
<path d="M262.505 1186.66C265.426 1186.71 265.705 1186.84 268.443 1187.48C270.658 1189.38 270.114 1188.24 270.456 1190.85C269.132 1193.93 268.432 1194.99 268.224 1198.25C270.381 1201.92 272.331 1203.27 269.222 1206.34C266.839 1205.7 266.969 1204.71 265.164 1201.94C264.5 1200.31 265.06 1200.85 263.632 1200.16C263.036 1203.16 262.736 1204.18 261.755 1207.09L260.56 1207.2C257.47 1203.86 259.136 1190.02 262.505 1186.66Z" fill="black"/>
<path d="M542.04 995.359C544.581 997.163 544.853 997.465 545.009 1000.23C542.002 1005.28 530.587 1009.3 524.801 1011.87C522.498 1010.99 522.14 1010.02 522.12 1007.94C525.007 1003.23 536.657 998.116 542.04 995.359Z" fill="#FCFCFC"/>
<path d="M262.006 1074.64C264.791 1075.2 263.639 1074.59 265.675 1076.35L265.439 1078.47C262.224 1082.89 251.364 1087.13 245.956 1089.54C242.89 1089.37 244.019 1089.98 241.889 1088.49L242.124 1086.12C244.561 1081.68 257.157 1076.75 262.006 1074.64Z" fill="#FCFCFC"/>
<path d="M214.455 1166.06C216.693 1166.19 216.238 1166.18 218.438 1166.83C223.694 1171.69 220.233 1179.91 216.502 1184.64C214.535 1184.48 214.268 1184.3 212.37 1183.66C207.09 1178.25 210.416 1171.12 214.455 1166.06Z" fill="black"/>
<path d="M214.992 1169.89C216.318 1170.85 216.013 1170.72 217.025 1172.11C217.594 1175.86 216.912 1177.1 215.823 1180.9C211.312 1178 213.441 1174.14 214.992 1169.89Z" fill="#FE9402"/>
<path d="M236.6 1188.9C239.318 1189.61 239.476 1189.9 241.752 1191.44L241.635 1192.76C235.841 1194.68 231.222 1198.42 234.376 1205.03C236.538 1205.52 235.538 1205.74 237.476 1204.54C237.087 1202.6 236.986 1201.87 236.856 1199.89C238.708 1197.86 238.884 1198.44 242.295 1197.76C242.816 1200.11 242.293 1205.74 240.357 1207.47C234.925 1212.27 227.868 1205.72 229.34 1199.37C230.512 1194.32 232.646 1192.04 236.6 1188.9Z" fill="black"/>
<path d="M250.113 1187.92L252.48 1188.7C255.429 1191.86 258.349 1203.46 255.122 1207.22C251.785 1206.05 255.171 1205.05 250.345 1202.11C248.788 1203.65 248.222 1204.53 247.283 1206.45L246.573 1207.92L244.801 1208.27L244.129 1206.84C244.439 1201.84 247.714 1192.44 250.113 1187.92Z" fill="black"/>
<path d="M522.665 964.855C525.321 965.716 524.215 965.001 526.087 967.107C526.627 972.47 516.608 983.742 512.839 988.518C510.802 987.434 510.883 987.579 509.804 985.555C510.134 979.962 518.937 969.754 522.665 964.855Z" fill="#FCFCFC"/>
<path d="M247.956 1139.75C257.6 1142.49 254.682 1152.33 249.224 1157.64C247.211 1157.43 247.128 1157.28 245.238 1156.47C240.189 1150.99 243.102 1144.18 247.956 1139.75Z" fill="black"/>
<path d="M247.581 1143.63C249.709 1144.59 248.865 1143.88 250.149 1145.9C250.602 1149.24 249.924 1150.39 248.858 1153.72C247.572 1153.11 247.934 1153.22 246.903 1152.06C246.274 1148.33 246.724 1147.44 247.581 1143.63Z" fill="#FE9402"/>
<path d="M198.272 1167.62C200.634 1169.09 201.698 1171.63 203.154 1174.13H204.091C204.64 1171.86 204.971 1170.57 205.745 1168.32L207.131 1167.97L208.056 1168.78C208.736 1173.31 207.831 1182.07 205.565 1186.21C203.642 1184.1 202.144 1181.54 200.554 1179.12C200.453 1181.69 199.532 1184.38 197.214 1185.72L196.062 1185.15C195.361 1181.23 196.519 1171.2 198.272 1167.62Z" fill="black"/>
<path d="M239.687 1164.56C250.716 1165.56 250.873 1173.4 245.385 1180.84C242.966 1181.85 242.617 1182.22 239.993 1182.06L238.685 1180.47C237.476 1176 238.964 1169.45 239.687 1164.56Z" fill="black"/>
<path d="M242.612 1167.61C246.981 1170.65 245.558 1173.75 243.951 1178.09C242.952 1177.92 243.581 1178.09 242.164 1177.31C241.455 1173.28 241.966 1171.64 242.612 1167.61Z" fill="#FE9402"/>
<path d="M238.812 1140.73L240.186 1141.42C242.589 1145.63 240.388 1154.9 239.618 1159.95C237.591 1157.35 235.675 1154.86 233.743 1152.19L232.546 1152.42C231.821 1154.68 231.342 1156.63 230.781 1158.9C229.774 1158.14 229.75 1157.91 228.954 1156.89C228.628 1152.69 227.426 1144.2 231.337 1141.92C233.574 1142.82 235.269 1146.23 237.201 1148.55C237.349 1144.92 237.468 1144.08 238.812 1140.73Z" fill="black"/>
<path d="M251.087 1163.67C252.026 1163.75 254.979 1163.92 255.815 1164.27C257.778 1165.07 259.28 1166.71 259.915 1168.73C261.18 1172.7 259.191 1176.61 257.092 1179.79C254.62 1181.02 253.121 1181.58 250.778 1180.19C249.185 1175.62 250.559 1168.8 251.087 1163.67Z" fill="black"/>
<path d="M254.194 1166.97C258.639 1169.77 256.944 1173.5 255.423 1177.48L254.163 1176.97C252.642 1173.57 253.49 1170.67 254.194 1166.97Z" fill="#FE9402"/>
<path d="M224.897 1190.42C225.559 1190.66 226.623 1191.26 227.288 1191.6C229.458 1197.37 225.348 1213.66 217.742 1210.02C214.983 1205.73 215.562 1203.31 215.58 1198.22C215.73 1194.38 215.506 1193.72 218.945 1191.74C221.026 1195.04 217.362 1201.25 220.579 1206.3L220.156 1206.77L219.733 1206.37L220.428 1206.61C224.034 1201.12 222.971 1197.47 224.471 1191.94L224.897 1190.42Z" fill="black"/>
<path d="M207.514 1191.56C211.718 1191.88 211.677 1191.98 214.055 1195.16L213.491 1196.19C211.313 1196.37 209.73 1196.27 207.845 1197.34C208.896 1202.56 212.846 1202.08 213.002 1207.38C211.278 1210.59 210.709 1210.72 207.612 1212.89C204.953 1212.42 204.733 1212.61 202.739 1210.72C201.819 1207.67 201.688 1209.07 202.72 1206.38C205.542 1205.8 204.726 1206.04 207.992 1207.73L208.867 1207.01C207.911 1201.52 203.799 1202.84 203.316 1197.38C204.466 1194.27 205.064 1193.97 207.514 1191.56Z" fill="black"/>
<path d="M526.078 1032.02C532.255 1032.68 540.023 1032.7 544.87 1036.23C546.199 1039.28 545.95 1037.63 544.807 1041.44C538.962 1041.03 529.576 1041.21 525.473 1037.59C524.639 1034.66 524.946 1035.48 526.078 1032.02Z" fill="#FCFCFC"/>
<path d="M230.882 1165L232.441 1165.7C234.915 1168.37 237.391 1178.61 235.549 1181.95L233.85 1181.79C232.827 1180.46 231.829 1179.11 230.855 1177.73C228.955 1179.95 229.568 1181.3 226.843 1182.61L225.804 1181.7C225.981 1176.62 228.912 1169.74 230.882 1165Z" fill="black"/>
<path d="M273.33 1138.49C274.682 1139.1 274.048 1138.62 275.044 1140.16C273.484 1142.77 269.522 1145.05 266.871 1146.88C267.845 1149.24 270.214 1145.9 273.405 1148.64L273.071 1149.56L270.922 1150.38L268.313 1150.58C265.032 1150.84 263.711 1151.45 260.813 1149.86L260.469 1148.4C263.045 1144.57 269.255 1141.12 273.33 1138.49Z" fill="black"/>
<path d="M206.44 1142.49C209.369 1143.28 220.38 1149.33 222.228 1151.75L221.834 1153.17L219.842 1154.21C217.113 1153.93 212.204 1154.01 210.773 1151.58L213.917 1150.06C209.667 1147.43 206.343 1147.96 206.44 1142.49Z" fill="black"/>
<path d="M543.702 912.375C548.452 915.072 548.482 919.758 547.137 924.442C542.979 920.15 541.278 918.328 543.702 912.375Z" fill="#FCF203"/>
<path d="M535.355 921.322C539.889 923.754 539.863 927.104 539.643 931.666C536.835 930.783 537.005 930.907 535.199 928.587C534.285 925.62 534.793 924.361 535.355 921.322Z" fill="#FCF203"/>
<path d="M236.685 967.444C236.056 964.791 235.537 963.785 236.472 961.233C238.592 959.624 237.446 960.076 239.989 959.71C240.99 962.236 241.477 962.858 240.955 965.543C238.723 967.575 240.021 966.811 236.685 967.444Z" fill="#FCF203"/>
<path d="M236.684 967.444L238.205 968.85C239.175 972.377 239.347 970.784 238.26 973.818L236.257 974.684C234.451 972.552 234.184 972.571 233.786 969.746C235.17 967.619 234.254 968.383 236.684 967.444Z" fill="#FCF203"/>
<path d="M93.6544 806.64C116.885 775.353 148.22 737.009 174.778 709.318C176.299 720.88 175.597 741.513 175.414 753.545L175.663 788.676C176.751 844.908 181.593 901.478 182.659 957.885C182.907 985.599 182.262 1013.31 180.724 1040.98C179.986 1057.12 179.288 1080.34 177.324 1096.34C177.215 1098.08 177.091 1101.54 176.845 1103.11C173.027 1145.33 168.667 1185.53 165.842 1227.89C152.164 1218.03 138.599 1208.01 125.147 1197.85C121.98 1195.64 118.632 1192.92 115.552 1190.54C105.158 1182.71 93.1214 1173.91 83.3359 1165.59C84.4299 1157.42 84.9148 1146.37 85.6614 1137.93C87.116 1122.53 88.7656 1107.15 90.6103 1091.79C94.9233 1056.56 101.164 1020.38 102.755 984.974C103.826 961.131 101.132 935.872 100.036 911.937C98.4269 876.79 97.0858 841.677 93.6544 806.64Z" fill="#FB7501"/>
<path d="M108.076 1075.12C123.398 1084.13 145.05 1101.74 160.902 1112.44C159.372 1129.43 157.557 1146.4 155.453 1163.33C154.737 1169.52 152.526 1186.67 152.874 1192.32L152.791 1193.69C148.227 1193.91 105.182 1159.98 98.584 1154.77L100.701 1132.98C102.592 1115.83 104.836 1091.44 108.076 1075.12Z" fill="#FCFCFC"/>
<path d="M142.434 1110.19L143.955 1110.95C145.446 1114.96 138.785 1166.81 137.114 1172.32L135.27 1170.73C134.902 1166.35 141.241 1116.13 142.434 1110.19Z" fill="black"/>
<path d="M133.46 1103.65L135.105 1104.58C136.392 1108.36 129.852 1159.01 128.446 1166.15L126.966 1165.2C125.076 1161.81 132.171 1111.66 133.46 1103.65Z" fill="black"/>
<path d="M123.927 1096.21L125.469 1097.11C126.975 1100.24 120.266 1152.57 119.1 1158.81L117.402 1157.98C115.686 1154.05 122.65 1104.2 123.927 1096.21Z" fill="black"/>
<path d="M113.76 1089.04L115.151 1089.93C116.609 1093.54 110.255 1146.12 108.509 1152.05C107.637 1151.47 107.398 1151.08 106.671 1150.3C106.357 1144.47 112.431 1095.76 113.76 1089.04Z" fill="black"/>
<path d="M151.436 1116.09C152.023 1116.45 152.97 1116.86 152.966 1117.4C152.892 1128.53 148.206 1169.24 145.896 1178.79L144.791 1178.11C143.121 1174.87 149.867 1122.23 151.436 1116.09Z" fill="black"/>
<path d="M94.1789 1141.83C94.4795 1138.5 96.2947 1129.35 99.2212 1127.59C101.015 1129.17 100.422 1129.72 100.701 1132.99L98.5841 1154.77C105.183 1159.98 148.227 1193.91 152.792 1193.69C153.497 1196.75 153.577 1196.9 153.548 1200C151.229 1198.42 152.208 1199.51 151.337 1195.97C139.864 1188.41 121.74 1173.17 110.986 1167.23L109.927 1167.84C110.03 1170.2 110.471 1169.8 112.803 1172.03L112.1 1173.07C106.497 1169.44 102.248 1163.91 92.9273 1158.35C92.3156 1154.64 93.6673 1145.88 94.1789 1141.83Z" fill="#FD5505"/>
<path d="M94.1789 1141.83C96.3081 1145.11 95.0004 1152.96 94.3766 1156.84L92.9273 1158.35C92.3156 1154.64 93.6673 1145.88 94.1789 1141.83Z" fill="#E64200"/>
<path d="M115.552 1190.54L117.064 1188.9C119.105 1186.64 119.493 1185.51 122.477 1184.83C122.839 1186.09 123.302 1187.98 123.776 1189.15L126.161 1189.65C126.641 1188.11 126.987 1187.19 127.878 1185.84C130.613 1186.35 130.394 1186.83 132.88 1188.9C127.649 1191.76 126.989 1192.11 125.146 1197.85C121.979 1195.64 118.632 1192.92 115.552 1190.54Z" fill="#FD5505"/>
<path d="M112.803 1172.03C122.033 1177.49 129.327 1181.54 136.849 1189.38L137.018 1190.42C134.927 1190.01 134.821 1189.86 132.882 1188.9C130.396 1186.83 130.615 1186.35 127.879 1185.84C126.989 1187.19 126.643 1188.11 126.163 1189.65L123.777 1189.15C123.303 1187.98 122.841 1186.09 122.479 1184.83C123.128 1184.29 123.835 1183.54 124.445 1182.93L123.93 1180.88C120.87 1177.4 116.267 1175.35 112.101 1173.07L112.803 1172.03Z" fill="#E64200"/>
<path d="M176.846 1103.11L171.589 1102.62C168.907 1100.84 168.789 1100.39 167.161 1097.72C167.454 1095.78 167.045 1096.66 168.509 1095.14C171.486 1094.36 174.283 1095.51 177.325 1096.34C177.216 1098.08 177.092 1101.54 176.846 1103.11Z" fill="#FD5505"/>
<path d="M174.763 773.804C174.743 769.737 174.121 755.927 175.413 753.545L175.662 788.676C173.991 780.102 173.193 787.638 167.66 778.812C168.683 776.808 168.188 777.419 169.915 776.062C171.638 776.342 172.566 776.492 174.303 776.566L174.763 773.804Z" fill="#FD5505"/>
<path d="M167.661 778.812C165.441 776.626 164.643 775.866 162.847 773.366C163.32 770.006 162.507 771.063 164.426 769.271C170.113 770.266 168.302 774.81 174.764 773.804L174.303 776.566C172.567 776.491 171.638 776.342 169.915 776.061C168.188 777.418 168.684 776.808 167.661 778.812Z" fill="#FD6E23"/>
<path d="M152.875 1192.32L154.824 1191.87C156.476 1194.35 155.891 1198.12 153.548 1200C153.577 1196.9 153.497 1196.75 152.792 1193.7L152.875 1192.32Z" fill="#661600"/>
<path d="M130.028 827.958C164.215 827.697 176.171 885.128 164.53 910.312C160.083 919.934 156.343 923.45 146.937 927.253C107.503 929.962 91.2512 841.278 130.028 827.958Z" fill="#FCFCFC"/>
<path d="M113.146 872.138C113.158 869.593 113.218 867.049 113.326 864.507C114.071 849.162 120.467 833.226 138.554 835.364C164.341 846.541 171.192 892.908 154.451 915.004C149.015 919.631 144.948 921.384 137.844 918.959L134.839 917.835C128.697 913.984 122.395 907.89 120.366 900.745C115.037 889.942 114.086 884.194 113.146 872.138Z" fill="#FE9402"/>
<path d="M113.146 872.139L115.323 872.585C120.549 875.083 126.998 877.972 132.759 878.724L133.495 879.796C128.37 884.014 122.568 891.847 120.62 898.218L120.366 900.746C115.037 889.942 114.086 884.195 113.146 872.139Z" fill="#FE9402"/>
<path d="M154.451 915.003C149.721 909.514 138.541 888.232 141.72 881.182C145.106 879.624 153.121 883.924 156.736 885.485C158.649 886.742 159.533 886.985 160.742 888.783C160.73 889.212 160.665 890.362 160.737 890.728C154.897 890.779 148.874 884.687 144.632 887.128C145.377 891.429 151.964 900.972 153.358 905.874C154.482 909.822 153.516 910.924 154.451 915.003Z" fill="#E64200"/>
<path d="M137.285 883.037C140.096 888.849 138.621 911.585 137.845 918.959L134.84 917.835C134.784 909.842 134.984 890.046 137.285 883.037Z" fill="#E64200"/>
<path d="M115.323 872.584C116.17 871.413 116.802 869.735 118.108 869.802C122.817 870.044 133.084 873.046 132.76 878.723C126.999 877.971 120.55 875.082 115.323 872.584Z" fill="#E64200"/>
<path d="M133.496 879.795C134.346 885.389 125.224 897.222 120.621 898.218C122.569 891.846 128.371 884.014 133.496 879.795Z" fill="#E64200"/>
<path d="M140.439 874.017C141.308 867.61 145.257 858.323 148.602 852.798L149.858 851.983C151.092 854.827 149.78 858.51 148.937 861.476L149.41 863.6C151.371 864.065 151.396 863.978 153.436 863.822L155.565 864.873C155.613 868.888 148.304 873.244 144.929 874.872C142.814 873.586 142.925 873.458 140.439 874.017Z" fill="#E64200"/>
<path d="M137.41 871.612C135.128 867.074 135.41 848.087 135.018 841.761C134.864 839.284 135.33 839.356 136.531 838.373L138.03 839.237L138.533 841.465C137.657 849.2 139.727 868.417 137.41 871.612Z" fill="#E64200"/>
<path d="M120.547 847.878C125.46 849.98 133.089 866.898 134.826 872.206C130.879 870.018 121.383 853.081 120.547 847.878Z" fill="#E64200"/>
<path d="M136.713 872.184L140.44 874.018C141.096 876.792 141.681 877.883 140.509 880.446C138.977 881.548 138.791 881.785 137.111 882.591C135.066 880.87 135.114 880.454 134.058 878.03C134.595 874.123 134.182 875.539 136.713 872.184Z" fill="#FCFCFC"/>
<path d="M106.353 1064.68C106.741 1064.72 108.482 1064.9 109.099 1065.31C127.823 1077.76 146.624 1091.47 164.448 1105.22C164.733 1106.06 165.019 1106.91 165.303 1107.75C164.584 1107.81 163.243 1107.92 162.638 1107.47C145.026 1094.23 127.282 1081.29 109.274 1068.6C107.878 1067.62 107.03 1065.96 106.353 1064.68Z" fill="black"/>
<path d="M114.979 965.24C126.514 970.419 150.28 984.806 162.74 991.056C164.556 991.967 164.357 994.126 164.442 995.904C158.481 993.253 117.381 970.667 114.693 967.599L114.979 965.24Z" fill="black"/>
<path d="M114.333 995.259C114.636 995.335 116.735 995.797 117.557 996.319C132.412 1005.72 148.843 1013.34 163.015 1023.6C163.319 1024.55 163.622 1025.5 163.927 1026.44C155.991 1024.16 126.933 1004.92 117.746 1000.01C114.919 998.499 114.742 997.635 114.333 995.259Z" fill="black"/>
<path d="M122.023 984.67L124.337 979.922C126.128 980.005 135.159 990.244 136.015 992.264L136.665 992.884L136.148 993.807C132.201 994.157 117.594 987.08 114.546 983.665L114.769 982.307C117.308 981.955 119.57 983.493 122.023 984.67Z" fill="black"/>
<path d="M122.023 984.67L124.337 979.922C126.128 980.005 135.159 990.244 136.015 992.264C132.056 990.377 126.405 986.914 122.023 984.67Z" fill="#FD5505"/>
<path d="M103.023 1069.54C107.334 1075.38 98.8985 1105.12 99.1964 1116.69C97.7004 1116.04 98.4631 1116.5 97.0058 1115.16C96.5891 1108.99 101.227 1074.89 103.023 1069.54Z" fill="#E64200"/>
<path d="M138.886 991.384C146.026 993.588 153.48 999.792 159.967 1003.85C163.536 1006.08 164.417 1006.36 165.031 1009.53C160.084 1008.96 140.721 996.218 138.886 991.384Z" fill="black"/>
<path d="M141.229 962.577C146.845 963.054 163.084 971.26 165.381 976.425C160.831 977.092 143.842 967.026 141.229 962.577Z" fill="black"/>
<path d="M112.945 1013.26C117.274 1013.54 135.488 1024.51 137.588 1029.28C132.09 1027.99 120.524 1020.56 115.458 1017.26C112.813 1015.54 113.363 1015.74 112.945 1013.26Z" fill="black"/>
<path d="M114.871 947.26C119.601 948.921 128.948 954.499 133.692 957.142C137.267 959.135 138.072 959.662 138.838 962.847C134.314 961.894 119.673 953.681 115.584 950.232C114.358 949.198 114.797 949.176 114.871 947.26Z" fill="black"/>
<path d="M140.701 1029.79C145.177 1030.81 162.158 1039.92 163.012 1044.57C159.83 1044.39 147.849 1036.9 144.509 1034.75C141.346 1032.71 141.223 1032.6 140.701 1029.79Z" fill="black"/>
<path d="M160.479 1157.96C161.646 1163.28 161.594 1168.74 158.701 1173.43C157.066 1169.4 159.013 1161.93 160.479 1157.96Z" fill="#E64200"/>
<path d="M136.062 819.781L138.461 821.136C138.96 823.714 138.422 823.425 136.782 826.399L135.405 826.436C134.473 823.983 135.335 822.906 136.062 819.781Z" fill="#E64200"/>
<path d="M467.191 618.862C468.457 611.321 468.189 596.915 474.445 592.797C479.832 592.178 495.631 602.048 501.293 605.155L512.582 611.172L522.269 616.415L528.079 619.41C540.734 626.242 553.823 633.55 566.64 639.968C550.279 641.579 533.906 644.345 517.587 646.449C450.772 655.057 382.918 660.921 316.49 671.996C294.358 675.71 272.294 679.805 250.303 684.28C227.567 689.022 205.519 694.508 182.323 696.419C171.972 689.66 157.556 680.755 147.88 673.483L141.136 669.093C126.105 658.68 110.524 648.937 95.6426 638.317C136.497 634.034 178.007 629.158 218.639 622.965C230.98 621.085 243.202 618.981 255.592 617.322C310.427 610.124 365.376 603.834 420.418 598.455C419.162 604.677 419.47 611.654 418.103 617.737C417.78 619.176 417.405 618.878 415.612 619.741C412.246 623.043 411.548 623.814 410.989 628.698C412.802 630.23 414.685 631.869 416.524 633.349L423.741 636.301C426.72 636.909 431.41 638.06 434.287 637.998L436.662 638.878L449.157 638.696C458.582 637.466 467.248 636.237 472.423 627.38L472.556 623.411C471.09 621.527 469.129 620.295 467.191 618.862Z" fill="#FE9402"/>
<path d="M467.191 618.862C468.457 611.321 468.189 596.915 474.445 592.797C479.832 592.178 495.631 602.048 501.293 605.155L512.583 611.172L522.269 616.415L528.08 619.41C540.734 626.242 553.823 633.55 566.64 639.968C550.279 641.579 533.906 644.345 517.588 646.449C450.772 655.057 382.918 660.921 316.49 671.996C294.359 675.71 272.294 679.805 250.303 684.28C227.567 689.022 205.519 694.508 182.323 696.419C171.972 689.66 157.556 680.755 147.88 673.483C153.024 670.793 188.538 668.252 197.45 666.674C241.853 658.816 285.996 650.995 330.623 644.514C346.378 642.212 362.17 640.164 377.993 638.373C389.938 637.049 404.991 635.954 416.524 633.349L423.741 636.301C426.72 636.909 431.41 638.06 434.287 637.998L436.662 638.878L449.157 638.696C458.582 637.466 467.248 636.237 472.423 627.38L472.557 623.411C471.09 621.527 469.129 620.295 467.191 618.862Z" fill="#FE9402"/>
<path d="M467.19 618.862C468.457 611.321 468.188 596.915 474.445 592.797C479.832 592.178 495.631 602.048 501.293 605.155C499.171 609.047 498.908 615.587 498.648 620.087C489.962 621.286 481.265 622.394 472.556 623.411C471.089 621.527 469.129 620.295 467.19 618.862Z" fill="#FE9402"/>
<path d="M501.293 605.155L512.583 611.172L522.269 616.415L528.08 619.41C517.722 623.049 484.325 626.64 472.423 627.38L472.556 623.411C481.265 622.394 489.962 621.286 498.648 620.087C498.909 615.587 499.172 609.047 501.293 605.155Z" fill="#FD5505"/>
<path d="M501.292 605.155L512.582 611.172C510.044 612.601 507.261 615.644 508.457 618.76C504.945 619.399 502.203 619.731 498.647 620.087C498.908 615.587 499.171 609.047 501.292 605.155Z" fill="#FB7501"/>
<path d="M508.457 618.76C507.261 615.644 510.044 612.601 512.581 611.172L522.268 616.415C518.835 618.087 512.396 618.465 508.457 618.76Z" fill="#FE9402"/>
<path d="M436.66 638.877L449.156 638.696C450.387 642.262 451.035 642.289 450.434 645.452C447.009 649.559 443.613 648.76 439.457 646.199C437.419 644.943 437.065 641.139 436.66 638.877Z" fill="#FD6E23"/>
<path d="M423.741 636.301C426.719 636.909 431.409 638.06 434.286 637.998C431.943 641.189 428.688 646.216 424.316 644.276C422.776 641.613 423.424 639.46 423.741 636.301Z" fill="#FD6E23"/>
<path d="M410.988 628.699C412.801 630.231 414.684 631.87 416.523 633.35C404.99 635.954 389.937 637.05 377.992 638.373C362.169 640.165 346.377 642.212 330.622 644.515C285.995 650.996 241.852 658.817 197.449 666.675C188.537 668.252 153.023 670.794 147.879 673.484L141.135 669.093C160.751 666.079 180.373 664.955 199.636 662.116L405.482 630.601C408.275 630.121 408.544 630.256 410.988 628.699Z" fill="#FD5505"/>
<path d="M387.257 614.636C391.02 614.32 394.852 613.891 398.621 614.405C405.667 615.368 408.696 619.84 415.611 619.741C412.245 623.043 411.547 623.814 410.988 628.698C408.544 630.256 408.276 630.121 405.483 630.601C404.558 627.402 390.748 617.358 387.257 614.636Z" fill="#FB7501"/>
<path d="M85.5853 645.696L131.806 676.571C133.097 677.49 135.406 679.021 136.503 680.014C148.842 688.433 161.298 696.678 173.868 704.747C161.298 718.386 149.644 731.886 137.449 745.82L132.358 751.945C119.221 768.198 106.179 784.527 93.2336 800.932C91.7096 789.65 90.4433 778.336 89.4348 766.995C89.1089 765.594 88.5639 758.484 88.3849 756.638C84.8947 719.823 85.437 682.625 85.5853 645.696Z" fill="#FB7501"/>
<path d="M136.502 680.014C148.841 688.433 161.297 696.678 173.867 704.747C161.297 718.386 149.643 731.886 137.447 745.82C135.265 742.505 135.921 730.349 135.953 725.68C135.465 715.489 133.949 689.182 136.502 680.014Z" fill="#FB7501"/>
<path d="M131.806 676.571C133.096 677.49 135.406 679.021 136.502 680.013C133.95 689.182 135.466 715.489 135.953 725.68C135.921 730.349 135.265 742.505 137.448 745.82L132.357 751.944C132.14 743.794 131.818 735.647 131.39 727.505C131.77 710.042 129.255 693.489 131.806 676.571Z" fill="#E64200"/>
<path d="M560.024 357.154C561.509 355.679 563.26 354.246 564.855 352.866C568.837 358.515 577.219 369.6 579.925 375.304L566.882 386.891L549.633 401.727C546.834 404.425 544.67 406.577 541.579 408.98C532.638 416.938 523.602 424.789 514.473 432.53C512.394 434.279 509.376 436.984 507.179 438.412C500.921 443.068 496.489 446.734 491.012 452.26C489.386 453.9 487.748 453.757 484.91 456.403C478.822 445.691 480.311 444.893 471.306 433.636C479.618 425.018 501.493 407.651 511.596 399.192C512.947 397.594 516.582 394.722 518.34 393.241C527.684 385.012 537.147 376.92 546.727 368.967C547.796 367.667 551.175 364.968 552.635 363.736C554.363 361.96 558.039 358.913 560.024 357.154Z" fill="#FCFCFC"/>
<path d="M511.596 399.191C510.815 414.141 509.74 423.358 507.179 438.412C500.921 443.068 496.489 446.734 491.012 452.259C489.386 453.9 487.748 453.757 484.91 456.403C478.822 445.69 480.311 444.893 471.306 433.636C479.618 425.017 501.493 407.651 511.596 399.191Z" fill="#FCFCFC"/>
<path d="M560.023 357.154C561.509 355.679 563.26 354.246 564.855 352.866C568.836 358.515 577.218 369.6 579.924 375.304L566.881 386.891L549.633 401.727C549.73 399.384 550.4 395.465 550.736 393.015C549.579 388.698 549.044 389.561 544.9 388.411C545.953 381.978 546.562 375.483 546.726 368.967C547.795 367.667 551.174 364.968 552.634 363.736C554.363 361.96 558.039 358.913 560.023 357.154Z" fill="#FCFCFC"/>
<path d="M560.024 357.154C561.51 355.679 563.261 354.246 564.856 352.866C568.837 358.515 577.219 369.6 579.925 375.304L566.882 386.891C568.162 371.952 568.626 369.37 560.024 357.154Z" fill="#FE34F6"/>
<path d="M546.726 368.967C547.795 367.667 551.174 364.968 552.634 363.736C552.685 373.056 551.775 383.708 550.736 393.015C549.579 388.698 549.044 389.561 544.9 388.411C545.953 381.978 546.562 375.483 546.726 368.967Z" fill="#FE34F6"/>
<path d="M518.339 393.241C517.823 402.83 514.281 427.009 514.472 432.529C512.392 434.279 509.375 436.984 507.178 438.412C509.738 423.358 510.813 414.141 511.595 399.191C512.945 397.594 516.581 394.722 518.339 393.241Z" fill="#FE34F6"/>
<path d="M544.901 388.411C549.044 389.561 549.58 388.698 550.737 393.015C550.4 395.465 549.731 399.384 549.634 401.727C546.834 404.425 544.67 406.577 541.579 408.98L544.901 388.411Z" fill="#FE34F6"/>
<path d="M442.111 515.248C445.661 520.124 462.145 544.921 465.71 546.347L464.767 555.422C463.659 564.946 462.637 575.691 461.223 585.077C460.868 588.203 460.492 591.327 460.096 594.448C458.973 602.486 455.615 617.7 458.314 624.553C455.587 628.853 445.502 629.263 440.881 628.536C435.455 626.769 430.947 628.555 427.478 624.381C426.769 621.808 428.954 612.796 429.543 609.134L431.175 593.929L432.483 584.71C433.959 575.439 435.237 566.137 436.315 556.81C436.541 553.62 437.042 551.428 437.681 548.279L441.214 523.413L442.111 515.248Z" fill="#FCFCFC"/>
<path d="M442.111 515.248C445.661 520.124 462.145 544.921 465.71 546.347L464.767 555.422C463.659 564.946 462.637 575.691 461.224 585.077C455.801 578.191 441.777 555.958 437.682 548.278L441.215 523.413L442.111 515.248Z" fill="#FCFCFC"/>
<path d="M442.11 515.248C445.66 520.124 462.145 544.921 465.71 546.347L464.767 555.422C458.332 549.457 448.277 532.102 441.214 523.413L442.11 515.248Z" fill="#FE34F6"/>
<path d="M437.682 548.279C441.777 555.958 455.801 578.191 461.224 585.078C460.869 588.204 460.492 591.328 460.097 594.448C454.576 586.116 449.16 577.714 443.849 569.247C441.107 564.834 439.442 561.085 436.315 556.81C436.541 553.621 437.042 551.429 437.682 548.279Z" fill="#FE34F6"/>
<path d="M432.483 584.71C439.177 594.909 445.39 609.026 452.016 619.617C451.919 620.233 451.823 620.848 451.727 621.463C445.763 619.951 435.672 599.594 431.176 593.93L432.483 584.71Z" fill="#FE34F6"/>
<path d="M440.881 628.537C435.455 626.77 430.947 628.556 427.478 624.381C426.769 621.809 428.954 612.797 429.543 609.134C432.055 613.771 439.582 625.485 440.881 628.537Z" fill="#FE34F6"/>
<path d="M629.902 296.141C644.375 300.649 638.945 303.699 646.426 313.885L644.57 321.44C641.063 323.979 637.709 326.323 634.416 329.148L628.763 333.346C618.304 342.619 607.737 351.77 597.068 360.798C594.574 362.956 591.726 365.565 589.144 367.534L579.925 375.304C577.219 369.6 568.837 358.515 564.855 352.866C574.24 345.019 582.936 336.736 592.554 328.833C594.788 326.633 598.065 323.907 600.48 321.767L610.924 312.501L614.978 308.562C622.098 304.309 624.135 302.662 629.902 296.141Z" fill="#FCFCFC"/>
<path d="M592.554 328.833L592.574 334.71L599.406 335.383C599.154 345.704 598.152 350.87 597.068 360.798C594.574 362.957 591.726 365.565 589.144 367.534L579.925 375.304C577.219 369.6 568.837 358.515 564.855 352.867C574.24 345.019 582.936 336.736 592.554 328.833Z" fill="#FCFCFC"/>
<path d="M592.575 334.709L599.407 335.383C599.154 345.704 598.153 350.869 597.068 360.797C594.574 362.956 591.726 365.565 589.145 367.533C590.038 356.538 591.698 345.717 592.575 334.709Z" fill="#FE34F6"/>
<path d="M629.902 296.141C644.374 300.649 638.944 303.699 646.426 313.885L644.569 321.44C641.063 323.979 637.709 326.323 634.415 329.148L628.762 333.346C622.638 326.124 617.045 320.077 610.924 312.501L614.978 308.562C622.097 304.309 624.134 302.662 629.902 296.141Z" fill="#FCFCFC"/>
<path d="M610.924 312.501L614.978 308.562C621.135 315.72 627.622 322.59 634.415 329.148L628.762 333.346C622.638 326.124 617.045 320.077 610.924 312.501Z" fill="#FE34F6"/>
<path d="M600.479 321.767C600.245 326.13 600.141 331.129 599.405 335.383L592.573 334.71L592.553 328.833C594.786 326.633 598.064 323.906 600.479 321.767Z" fill="#FE34F6"/>
<path d="M471.306 433.636C480.311 444.893 478.822 445.691 484.91 456.403C483.788 458.256 482.673 460.16 481.496 461.974C472.527 482.456 474.482 484.472 471.352 504.899C467.113 503.511 450.903 478.313 447.259 472.788C447.546 469.044 451.4 458.033 452.73 454.21L453.466 450.3C455.468 447.61 464.595 439.645 467.592 436.856L471.306 433.636Z" fill="#FCFCFC"/>
<path d="M471.306 433.636C480.311 444.893 478.822 445.691 484.91 456.403C483.788 458.256 482.673 460.16 481.496 461.974C471.086 457.279 473.522 457.047 475.46 451.311C476.012 449.678 468.72 442.437 467.593 436.856L471.306 433.636Z" fill="#FE34F6"/>
<path d="M453.466 450.3C458.051 450.811 462.789 452.667 463.713 457.659C459.906 459.518 456.133 456.248 452.729 454.21L453.466 450.3Z" fill="#FE34F6"/>
<path d="M466.767 467.77C470.874 469.73 471.796 471.213 471.294 475.543C468.87 474.51 469.242 474.544 467.144 472.86C465.845 469.593 465.98 471.229 466.767 467.77Z" fill="#FE34F6"/>
<path d="M447.257 472.788C450.901 478.313 467.111 503.511 471.351 504.899C470.994 508.251 470.682 512.178 470.206 515.463C468.525 525.731 467.025 536.026 465.709 546.347C462.144 544.921 445.66 520.125 442.109 515.248C443.682 504.495 444.969 493.317 446.354 482.508L447.257 472.788Z" fill="#FCFCFC"/>
<path d="M447.259 472.788C450.903 478.313 467.113 503.511 471.353 504.899C470.996 508.251 470.684 512.178 470.208 515.463C463.013 506.445 452.535 491.891 446.356 482.508L447.259 472.788Z" fill="#FE34F6"/>
<defs>
<linearGradient id="paint0_linear_326_2" x1="505.489" y1="904.928" x2="521.651" y2="922.774" gradientUnits="userSpaceOnUse">
<stop stop-color="#8CD616"/>
<stop offset="1" stop-color="#6FAD23"/>
</linearGradient>
</defs>
</svg>
